<?xml version="1.0" encoding="UTF-8" standalone="no"?>
<!DOCTYPE svg PUBLIC "-//W3C//DTD SVG 1.1//EN"
 "http://www.w3.org/Graphics/SVG/1.1/DTD/svg11.dtd">
<!-- Generated by graphviz version 2.26.3 (20100126.1600)
 -->
<!-- Title: G Pages: 1 -->
<svg width="993pt" height="1170pt"
 viewBox="0.00 0.00 993.00 1170.00" xmlns="http://www.w3.org/2000/svg" xmlns:xlink="http://www.w3.org/1999/xlink">
<g id="graph1" class="graph" transform="scale(1 1) rotate(0) translate(4 1166)">
<title>G</title>
<polygon fill="white" stroke="white" points="-4,5 -4,-1166 990,-1166 990,5 -4,5"/>
<!-- delhi -->
<g id="node1" class="node"><title>delhi</title>
<ellipse fill="none" stroke="black" cx="181" cy="-1143" rx="34.8574" ry="18.3848"/>
<text text-anchor="middle" x="181" y="-1139.4" font-family="Times Roman,serif" font-size="14.00">delhi</text>
</g>
<!-- 10.155.72.61 -->
<g id="node3" class="node"><title>10.155.72.61</title>
<ellipse fill="none" stroke="black" cx="181" cy="-1051" rx="77.9889" ry="18.3848"/>
<text text-anchor="middle" x="181" y="-1047.4" font-family="Times Roman,serif" font-size="14.00">10.155.72.61</text>
</g>
<!-- delhi&#45;&gt;10.155.72.61 -->
<g id="edge2" class="edge"><title>delhi&#45;&gt;10.155.72.61</title>
<path fill="none" stroke="green" d="M181,-1124.38C181,-1111.54 181,-1094.22 181,-1079.63"/>
<polygon fill="green" stroke="green" points="184.5,-1079.59 181,-1069.59 177.5,-1079.59 184.5,-1079.59"/>
<text text-anchor="middle" x="220.5" y="-1093.4" font-family="Times Roman,serif" font-size="14.00">46.33 ms,1</text>
</g>
<!-- 10.155.87.177 -->
<g id="node10" class="node"><title>10.155.87.177</title>
<ellipse fill="none" stroke="black" cx="88" cy="-959" rx="84.8528" ry="18.3848"/>
<text text-anchor="middle" x="88" y="-955.4" font-family="Times Roman,serif" font-size="14.00">10.155.87.177</text>
</g>
<!-- 10.155.72.61&#45;&gt;10.155.87.177 -->
<g id="edge8" class="edge"><title>10.155.72.61&#45;&gt;10.155.87.177</title>
<path fill="none" stroke="green" d="M162.626,-1032.82C148.615,-1018.96 129.146,-999.704 113.607,-984.332"/>
<polygon fill="green" stroke="green" points="115.906,-981.683 106.336,-977.138 110.983,-986.659 115.906,-981.683"/>
<text text-anchor="middle" x="181.5" y="-1001.4" font-family="Times Roman,serif" font-size="14.00">68.95 ms,2</text>
</g>
<!-- 10.155.87.181 -->
<g id="node12" class="node"><title>10.155.87.181</title>
<ellipse fill="none" stroke="black" cx="276" cy="-959" rx="84.8528" ry="18.3848"/>
<text text-anchor="middle" x="276" y="-955.4" font-family="Times Roman,serif" font-size="14.00">10.155.87.181</text>
</g>
<!-- 10.155.72.61&#45;&gt;10.155.87.181 -->
<g id="edge10" class="edge"><title>10.155.72.61&#45;&gt;10.155.87.181</title>
<path fill="none" stroke="green" d="M203.399,-1033.08C210.47,-1027.18 218.207,-1020.47 225,-1014 234.576,-1004.88 244.581,-994.337 253.167,-984.939"/>
<polygon fill="green" stroke="green" points="255.899,-987.136 260.005,-977.37 250.704,-982.444 255.899,-987.136"/>
<text text-anchor="middle" x="281.5" y="-1001.4" font-family="Times Roman,serif" font-size="14.00">58.58 ms,2</text>
</g>
<!-- AP -->
<g id="node4" class="node"><title>AP</title>
<ellipse fill="none" stroke="black" cx="260" cy="-295" rx="27" ry="18.3848"/>
<text text-anchor="middle" x="260" y="-291.4" font-family="Times Roman,serif" font-size="14.00">AP</text>
</g>
<!-- 10.152.170.162 -->
<g id="node6" class="node"><title>10.152.170.162</title>
<ellipse fill="none" stroke="black" cx="226" cy="-203" rx="91.2168" ry="18.3848"/>
<text text-anchor="middle" x="226" y="-199.4" font-family="Times Roman,serif" font-size="14.00">10.152.170.162</text>
</g>
<!-- AP&#45;&gt;10.152.170.162 -->
<g id="edge4" class="edge"><title>AP&#45;&gt;10.152.170.162</title>
<path fill="none" stroke="red" d="M245.087,-279.231C240.096,-273.061 235.034,-265.636 232,-258 228.747,-249.814 227.055,-240.434 226.222,-231.767"/>
<polygon fill="red" stroke="red" points="229.709,-231.436 225.586,-221.676 222.722,-231.876 229.709,-231.436"/>
<text text-anchor="middle" x="271.5" y="-245.4" font-family="Times Roman,serif" font-size="14.00">95.23 ms,2</text>
</g>
<!-- 10.152.170.170 -->
<g id="node8" class="node"><title>10.152.170.170</title>
<ellipse fill="none" stroke="black" cx="426" cy="-203" rx="91.2168" ry="18.3848"/>
<text text-anchor="middle" x="426" y="-199.4" font-family="Times Roman,serif" font-size="14.00">10.152.170.170</text>
</g>
<!-- AP&#45;&gt;10.152.170.170 -->
<g id="edge6" class="edge"><title>AP&#45;&gt;10.152.170.170</title>
<path fill="none" stroke="red" d="M278.781,-281.437C299.845,-266.276 331.877,-243.394 338,-240 348.981,-233.914 361.168,-228.19 372.886,-223.147"/>
<polygon fill="red" stroke="red" points="374.288,-226.355 382.152,-219.255 371.576,-219.901 374.288,-226.355"/>
<text text-anchor="middle" x="377.5" y="-245.4" font-family="Times Roman,serif" font-size="14.00">91.43 ms,2</text>
</g>
<!-- 10.152.170.166 -->
<g id="node21" class="node"><title>10.152.170.166</title>
<ellipse fill="none" stroke="black" cx="226" cy="-111" rx="91.2168" ry="18.3848"/>
<text text-anchor="middle" x="226" y="-107.4" font-family="Times Roman,serif" font-size="14.00">10.152.170.166</text>
</g>
<!-- 10.152.170.162&#45;&gt;10.152.170.166 -->
<g id="edge18" class="edge"><title>10.152.170.162&#45;&gt;10.152.170.166</title>
<path fill="none" stroke="red" d="M226,-184.382C226,-171.538 226,-154.216 226,-139.627"/>
<polygon fill="red" stroke="red" points="229.5,-139.59 226,-129.59 222.5,-139.59 229.5,-139.59"/>
<text text-anchor="middle" x="270" y="-153.4" font-family="Times Roman,serif" font-size="14.00">127.65 ms,3</text>
</g>
<!-- 10.152.170.174 -->
<g id="node19" class="node"><title>10.152.170.174</title>
<ellipse fill="none" stroke="black" cx="426" cy="-111" rx="91.2168" ry="18.3848"/>
<text text-anchor="middle" x="426" y="-107.4" font-family="Times Roman,serif" font-size="14.00">10.152.170.174</text>
</g>
<!-- 10.152.170.170&#45;&gt;10.152.170.174 -->
<g id="edge16" class="edge"><title>10.152.170.170&#45;&gt;10.152.170.174</title>
<path fill="none" stroke="red" d="M426,-184.382C426,-171.538 426,-154.216 426,-139.627"/>
<polygon fill="red" stroke="red" points="429.5,-139.59 426,-129.59 422.5,-139.59 429.5,-139.59"/>
<text text-anchor="middle" x="465.5" y="-153.4" font-family="Times Roman,serif" font-size="14.00">98.32 ms,3</text>
</g>
<!-- 10.155.68.4 -->
<g id="node23" class="node"><title>10.155.68.4</title>
<ellipse fill="none" stroke="black" cx="192" cy="-867" rx="72.1249" ry="18.3848"/>
<text text-anchor="middle" x="192" y="-863.4" font-family="Times Roman,serif" font-size="14.00">10.155.68.4</text>
</g>
<!-- 10.155.87.177&#45;&gt;10.155.68.4 -->
<g id="edge22" class="edge"><title>10.155.87.177&#45;&gt;10.155.68.4</title>
<path fill="none" stroke="green" d="M104.988,-940.772C115.566,-929.742 129.655,-915.612 143,-904 148.187,-899.487 153.871,-894.899 159.471,-890.561"/>
<polygon fill="green" stroke="green" points="161.707,-893.258 167.551,-884.421 157.471,-887.685 161.707,-893.258"/>
<text text-anchor="middle" x="182.5" y="-909.4" font-family="Times Roman,serif" font-size="14.00">76.19 ms,3</text>
</g>
<!-- 10.155.87.181&#45;&gt;10.155.68.4 -->
<g id="edge20" class="edge"><title>10.155.87.181&#45;&gt;10.155.68.4</title>
<path fill="none" stroke="green" d="M259.404,-940.824C246.864,-927.089 229.483,-908.053 215.513,-892.752"/>
<polygon fill="green" stroke="green" points="217.889,-890.163 208.561,-885.138 212.719,-894.883 217.889,-890.163"/>
<text text-anchor="middle" x="280.5" y="-909.4" font-family="Times Roman,serif" font-size="14.00">62.38 ms,3</text>
</g>
<!-- TN -->
<g id="node13" class="node"><title>TN</title>
<ellipse fill="none" stroke="black" cx="660" cy="-867" rx="27" ry="18.3848"/>
<text text-anchor="middle" x="660" y="-863.4" font-family="Times Roman,serif" font-size="14.00">TN</text>
</g>
<!-- 10.152.160.170 -->
<g id="node15" class="node"><title>10.152.160.170</title>
<ellipse fill="none" stroke="black" cx="765" cy="-719" rx="91.2168" ry="18.3848"/>
<text text-anchor="middle" x="765" y="-715.4" font-family="Times Roman,serif" font-size="14.00">10.152.160.170</text>
</g>
<!-- TN&#45;&gt;10.152.160.170 -->
<g id="edge12" class="edge"><title>TN&#45;&gt;10.152.160.170</title>
<path fill="none" stroke="blue" d="M684.242,-858.435C698.166,-852.411 715.014,-843.074 726,-830 745.918,-806.298 755.921,-771.752 760.768,-747.511"/>
<polygon fill="blue" stroke="blue" points="764.244,-747.961 762.597,-737.495 757.358,-746.704 764.244,-747.961"/>
<text text-anchor="middle" x="781" y="-817.4" font-family="Times Roman,serif" font-size="14.00">132.76 ms,2</text>
</g>
<!-- 10.152.160.162 -->
<g id="node17" class="node"><title>10.152.160.162</title>
<ellipse fill="none" stroke="black" cx="597" cy="-775" rx="91.2168" ry="18.3848"/>
<text text-anchor="middle" x="597" y="-771.4" font-family="Times Roman,serif" font-size="14.00">10.152.160.162</text>
</g>
<!-- TN&#45;&gt;10.152.160.162 -->
<g id="edge14" class="edge"><title>TN&#45;&gt;10.152.160.162</title>
<path fill="none" stroke="blue" d="M648.445,-850.126C639.153,-836.557 625.929,-817.246 615.215,-801.6"/>
<polygon fill="blue" stroke="blue" points="618.1,-799.618 609.562,-793.345 612.324,-803.573 618.1,-799.618"/>
<text text-anchor="middle" x="678" y="-817.4" font-family="Times Roman,serif" font-size="14.00">137.31 ms,2</text>
</g>
<!-- 10.152.161.174 -->
<g id="node28" class="node"><title>10.152.161.174</title>
<ellipse fill="none" stroke="black" cx="771" cy="-571" rx="91.2168" ry="18.3848"/>
<text text-anchor="middle" x="771" y="-567.4" font-family="Times Roman,serif" font-size="14.00">10.152.161.174</text>
</g>
<!-- 10.152.160.170&#45;&gt;10.152.161.174 -->
<g id="edge26" class="edge"><title>10.152.160.170&#45;&gt;10.152.161.174</title>
<path fill="none" stroke="blue" d="M765.76,-700.256C766.788,-674.901 768.631,-629.439 769.834,-599.75"/>
<polygon fill="blue" stroke="blue" points="773.338,-599.726 770.246,-589.592 766.344,-599.442 773.338,-599.726"/>
<text text-anchor="middle" x="812" y="-659.4" font-family="Times Roman,serif" font-size="14.00">142.71 ms,3</text>
</g>
<!-- 10.152.160.166 -->
<g id="node26" class="node"><title>10.152.160.166</title>
<ellipse fill="none" stroke="black" cx="578" cy="-663" rx="91.2168" ry="18.3848"/>
<text text-anchor="middle" x="578" y="-659.4" font-family="Times Roman,serif" font-size="14.00">10.152.160.166</text>
</g>
<!-- 10.152.160.162&#45;&gt;10.152.160.166 -->
<g id="edge24" class="edge"><title>10.152.160.162&#45;&gt;10.152.160.166</title>
<path fill="none" stroke="blue" d="M584.711,-756.54C581.562,-750.836 578.612,-744.371 577,-738 573.208,-723.011 573.149,-705.792 574.175,-691.636"/>
<polygon fill="blue" stroke="blue" points="577.677,-691.78 575.128,-681.496 570.708,-691.125 577.677,-691.78"/>
<text text-anchor="middle" x="621" y="-715.4" font-family="Times Roman,serif" font-size="14.00">141.61 ms,3</text>
</g>
<!-- 202.78.175.200 -->
<g id="node65" class="node"><title>202.78.175.200</title>
<ellipse fill="none" stroke="black" cx="600" cy="-19" rx="91.2168" ry="18.3848"/>
<text text-anchor="middle" x="600" y="-15.4" font-family="Times Roman,serif" font-size="14.00">202.78.175.200</text>
</g>
<!-- 10.152.170.174&#45;&gt;202.78.175.200 -->
<g id="edge74" class="edge"><title>10.152.170.174&#45;&gt;202.78.175.200</title>
<path fill="none" stroke="red" d="M424.892,-92.3268C425.23,-80.4142 427.757,-65.4845 437,-56 448.058,-44.6525 479.343,-36.2534 511.585,-30.3521"/>
<polygon fill="red" stroke="red" points="512.353,-33.7709 521.601,-28.6003 511.147,-26.8756 512.353,-33.7709"/>
<text text-anchor="middle" x="485.5" y="-61.4" font-family="Times Roman,serif" font-size="14.00">192.25 ms,10</text>
</g>
<!-- 10.152.170.166&#45;&gt;202.78.175.200 -->
<g id="edge72" class="edge"><title>10.152.170.166&#45;&gt;202.78.175.200</title>
<path fill="none" stroke="red" d="M251.934,-93.2357C271.435,-80.7699 299.28,-64.8113 326,-56 358.791,-45.1866 441.26,-34.8418 507.215,-27.8539"/>
<polygon fill="red" stroke="red" points="507.652,-31.3274 517.233,-26.8047 506.923,-24.3655 507.652,-31.3274"/>
<text text-anchor="middle" x="374.5" y="-61.4" font-family="Times Roman,serif" font-size="14.00">177.35 ms,10</text>
</g>
<!-- 10.155.68.137 -->
<g id="node30" class="node"><title>10.155.68.137</title>
<ellipse fill="none" stroke="black" cx="374" cy="-775" rx="84.8528" ry="18.3848"/>
<text text-anchor="middle" x="374" y="-771.4" font-family="Times Roman,serif" font-size="14.00">10.155.68.137</text>
</g>
<!-- 10.155.68.4&#45;&gt;10.155.68.137 -->
<g id="edge28" class="edge"><title>10.155.68.4&#45;&gt;10.155.68.137</title>
<path fill="none" stroke="green" d="M224.959,-850.339C254.7,-835.305 298.638,-813.095 331.107,-796.682"/>
<polygon fill="green" stroke="green" points="333.017,-799.639 340.362,-792.004 329.859,-793.391 333.017,-799.639"/>
<text text-anchor="middle" x="338.5" y="-817.4" font-family="Times Roman,serif" font-size="14.00">49.09 ms,4</text>
</g>
<!-- 10.155.68.76 -->
<g id="node32" class="node"><title>10.155.68.76</title>
<ellipse fill="none" stroke="black" cx="78" cy="-775" rx="77.9889" ry="18.3848"/>
<text text-anchor="middle" x="78" y="-771.4" font-family="Times Roman,serif" font-size="14.00">10.155.68.76</text>
</g>
<!-- 10.155.68.4&#45;&gt;10.155.68.76 -->
<g id="edge30" class="edge"><title>10.155.68.4&#45;&gt;10.155.68.76</title>
<path fill="none" stroke="green" d="M138.769,-854.364C124.408,-848.838 109.859,-841.011 99,-830 91.8848,-822.785 87.1311,-812.91 83.9769,-803.517"/>
<polygon fill="green" stroke="green" points="87.271,-802.307 81.146,-793.662 80.5431,-804.24 87.271,-802.307"/>
<text text-anchor="middle" x="138.5" y="-817.4" font-family="Times Roman,serif" font-size="14.00">79.13 ms,4</text>
</g>
<!-- 223.224.40.67 -->
<g id="node36" class="node"><title>223.224.40.67</title>
<ellipse fill="none" stroke="black" cx="186" cy="-663" rx="84.8528" ry="18.3848"/>
<text text-anchor="middle" x="186" y="-659.4" font-family="Times Roman,serif" font-size="14.00">223.224.40.67</text>
</g>
<!-- 10.155.68.4&#45;&gt;223.224.40.67 -->
<g id="edge34" class="edge"><title>10.155.68.4&#45;&gt;223.224.40.67</title>
<path fill="none" stroke="green" d="M191.446,-848.174C190.395,-812.423 188.103,-734.492 186.853,-692.016"/>
<polygon fill="green" stroke="green" points="190.345,-691.673 186.552,-681.781 183.348,-691.879 190.345,-691.673"/>
<text text-anchor="middle" x="228.5" y="-771.4" font-family="Times Roman,serif" font-size="14.00">46.15 ms,5</text>
</g>
<!-- 125.17.12.121 -->
<g id="node34" class="node"><title>125.17.12.121</title>
<ellipse fill="none" stroke="black" cx="563" cy="-571" rx="84.8528" ry="18.3848"/>
<text text-anchor="middle" x="563" y="-567.4" font-family="Times Roman,serif" font-size="14.00">125.17.12.121</text>
</g>
<!-- 10.152.160.166&#45;&gt;125.17.12.121 -->
<g id="edge32" class="edge"><title>10.152.160.166&#45;&gt;125.17.12.121</title>
<path fill="none" stroke="blue" d="M574.965,-644.382C572.87,-631.538 570.046,-614.216 567.667,-599.627"/>
<polygon fill="blue" stroke="blue" points="571.095,-598.896 566.031,-589.59 564.186,-600.023 571.095,-598.896"/>
<text text-anchor="middle" x="615" y="-613.4" font-family="Times Roman,serif" font-size="14.00">123.87 ms,4</text>
</g>
<!-- 182.79.247.154 -->
<g id="node41" class="node"><title>182.79.247.154</title>
<ellipse fill="none" stroke="black" cx="452" cy="-479" rx="91.2168" ry="18.3848"/>
<text text-anchor="middle" x="452" y="-475.4" font-family="Times Roman,serif" font-size="14.00">182.79.247.154</text>
</g>
<!-- 10.152.161.174&#45;&gt;182.79.247.154 -->
<g id="edge40" class="edge"><title>10.152.161.174&#45;&gt;182.79.247.154</title>
<path fill="none" stroke="blue" d="M718.01,-555.882C702.26,-550.223 685.383,-542.945 671,-534 661.122,-527.857 662.367,-521.275 652,-516 649.148,-514.549 585.384,-502.875 530.613,-493.022"/>
<polygon fill="blue" stroke="blue" points="530.969,-489.53 520.508,-491.207 529.731,-496.42 530.969,-489.53"/>
<text text-anchor="middle" x="715" y="-521.4" font-family="Times Roman,serif" font-size="14.00">159.59 ms,5</text>
</g>
<!-- 182.79.247.150 -->
<g id="node43" class="node"><title>182.79.247.150</title>
<ellipse fill="none" stroke="black" cx="659" cy="-479" rx="91.2168" ry="18.3848"/>
<text text-anchor="middle" x="659" y="-475.4" font-family="Times Roman,serif" font-size="14.00">182.79.247.150</text>
</g>
<!-- 10.152.161.174&#45;&gt;182.79.247.150 -->
<g id="edge44" class="edge"><title>10.152.161.174&#45;&gt;182.79.247.150</title>
<path fill="none" stroke="blue" d="M772.866,-552.245C773.005,-540.6 771.197,-525.999 763,-516 757.387,-509.154 742.28,-502.43 725.262,-496.632"/>
<polygon fill="blue" stroke="blue" points="726.252,-493.273 715.659,-493.511 724.088,-499.931 726.252,-493.273"/>
<text text-anchor="middle" x="815" y="-521.4" font-family="Times Roman,serif" font-size="14.00">203.53 ms,5</text>
</g>
<!-- 10.152.161.174&#45;&gt;202.78.175.200 -->
<g id="edge80" class="edge"><title>10.152.161.174&#45;&gt;202.78.175.200</title>
<path fill="none" stroke="blue" d="M827.072,-556.282C840.014,-550.884 852.924,-543.64 863,-534 882.402,-515.438 888,-505.851 888,-479 888,-479 888,-479 888,-111 888,-81.0338 874.535,-71.6823 849,-56 823.785,-40.5141 755.573,-31.0584 696.909,-25.5865"/>
<polygon fill="blue" stroke="blue" points="697.108,-22.0903 686.833,-24.6764 696.478,-29.0619 697.108,-22.0903"/>
<text text-anchor="middle" x="936.5" y="-291.4" font-family="Times Roman,serif" font-size="14.00">233.39 ms,10</text>
</g>
<!-- 10.155.68.155 -->
<g id="node39" class="node"><title>10.155.68.155</title>
<ellipse fill="none" stroke="black" cx="374" cy="-663" rx="84.8528" ry="18.3848"/>
<text text-anchor="middle" x="374" y="-659.4" font-family="Times Roman,serif" font-size="14.00">10.155.68.155</text>
</g>
<!-- 10.155.68.137&#45;&gt;10.155.68.155 -->
<g id="edge38" class="edge"><title>10.155.68.137&#45;&gt;10.155.68.155</title>
<path fill="none" stroke="green" d="M374,-756.254C374,-738.729 374,-712.296 374,-692.041"/>
<polygon fill="green" stroke="green" points="377.5,-691.807 374,-681.807 370.5,-691.807 377.5,-691.807"/>
<text text-anchor="middle" x="413.5" y="-715.4" font-family="Times Roman,serif" font-size="14.00">39.72 ms,5</text>
</g>
<!-- 10.155.68.76&#45;&gt;223.224.40.67 -->
<g id="edge36" class="edge"><title>10.155.68.76&#45;&gt;223.224.40.67</title>
<path fill="none" stroke="green" d="M78.7992,-756.219C80.4485,-739.607 85.2562,-715.643 99,-700 105.432,-692.679 113.561,-686.763 122.253,-681.995"/>
<polygon fill="green" stroke="green" points="124.06,-685.006 131.467,-677.431 120.953,-678.733 124.06,-685.006"/>
<text text-anchor="middle" x="138.5" y="-715.4" font-family="Times Roman,serif" font-size="14.00">46.31 ms,5</text>
</g>
<!-- 125.17.12.121&#45;&gt;182.79.247.154 -->
<g id="edge46" class="edge"><title>125.17.12.121&#45;&gt;182.79.247.154</title>
<path fill="none" stroke="blue" d="M501.602,-558.18C487.94,-552.737 474.664,-544.997 465,-534 458.647,-526.771 455.254,-517.007 453.485,-507.712"/>
<polygon fill="blue" stroke="blue" points="456.923,-507.015 452.107,-497.578 449.987,-507.958 456.923,-507.015"/>
<text text-anchor="middle" x="509" y="-521.4" font-family="Times Roman,serif" font-size="14.00">169.25 ms,5</text>
</g>
<!-- 125.17.12.121&#45;&gt;182.79.247.150 -->
<g id="edge42" class="edge"><title>125.17.12.121&#45;&gt;182.79.247.150</title>
<path fill="none" stroke="blue" d="M558.44,-552.327C556.75,-540.858 556.736,-526.42 564,-516 568.506,-509.537 581.366,-503.095 596.225,-497.44"/>
<polygon fill="blue" stroke="blue" points="597.461,-500.715 605.679,-494.028 595.084,-494.131 597.461,-500.715"/>
<text text-anchor="middle" x="608" y="-521.4" font-family="Times Roman,serif" font-size="14.00">169.91 ms,5</text>
</g>
<!-- 125.16.67.33 -->
<g id="node47" class="node"><title>125.16.67.33</title>
<ellipse fill="none" stroke="black" cx="350" cy="-571" rx="77.9889" ry="18.3848"/>
<text text-anchor="middle" x="350" y="-567.4" font-family="Times Roman,serif" font-size="14.00">125.16.67.33</text>
</g>
<!-- 223.224.40.67&#45;&gt;125.16.67.33 -->
<g id="edge50" class="edge"><title>223.224.40.67&#45;&gt;125.16.67.33</title>
<path fill="none" stroke="green" d="M213.612,-645.287C231.238,-634.19 254.699,-619.806 276,-608 285.619,-602.669 296.103,-597.217 306.074,-592.194"/>
<polygon fill="green" stroke="green" points="307.663,-595.313 315.048,-587.717 304.538,-589.049 307.663,-595.313"/>
<text text-anchor="middle" x="315.5" y="-613.4" font-family="Times Roman,serif" font-size="14.00">50.94 ms,6</text>
</g>
<!-- 10.155.68.155&#45;&gt;125.16.67.33 -->
<g id="edge48" class="edge"><title>10.155.68.155&#45;&gt;125.16.67.33</title>
<path fill="none" stroke="green" d="M369.143,-644.382C365.793,-631.538 361.274,-614.216 357.468,-599.627"/>
<polygon fill="green" stroke="green" points="360.76,-598.383 354.85,-589.59 353.987,-600.15 360.76,-598.383"/>
<text text-anchor="middle" x="403.5" y="-613.4" font-family="Times Roman,serif" font-size="14.00">49.60 ms,6</text>
</g>
<!-- 59.145.165.106 -->
<g id="node50" class="node"><title>59.145.165.106</title>
<ellipse fill="none" stroke="black" cx="548" cy="-387" rx="91.2168" ry="18.3848"/>
<text text-anchor="middle" x="548" y="-383.4" font-family="Times Roman,serif" font-size="14.00">59.145.165.106</text>
</g>
<!-- 182.79.247.154&#45;&gt;59.145.165.106 -->
<g id="edge52" class="edge"><title>182.79.247.154&#45;&gt;59.145.165.106</title>
<path fill="none" stroke="blue" d="M497.419,-462.771C507.821,-457.41 518.122,-450.562 526,-442 532.853,-434.553 537.688,-424.704 541.044,-415.4"/>
<polygon fill="blue" stroke="blue" points="544.446,-416.248 544.13,-405.658 537.773,-414.134 544.446,-416.248"/>
<text text-anchor="middle" x="581" y="-429.4" font-family="Times Roman,serif" font-size="14.00">178.60 ms,6</text>
</g>
<!-- 182.79.247.154&#45;&gt;59.145.165.106 -->
<g id="edge60" class="edge"><title>182.79.247.154&#45;&gt;59.145.165.106</title>
<path fill="none" stroke="green" d="M442.614,-460.385C438.285,-448.938 435.565,-434.503 443,-424 448.088,-416.812 462.858,-410.054 479.772,-404.329"/>
<polygon fill="green" stroke="green" points="480.889,-407.647 489.342,-401.259 478.751,-400.981 480.889,-407.647"/>
<text text-anchor="middle" x="482.5" y="-429.4" font-family="Times Roman,serif" font-size="14.00">65.40 ms,8</text>
</g>
<!-- 182.79.247.150&#45;&gt;59.145.165.106 -->
<g id="edge54" class="edge"><title>182.79.247.150&#45;&gt;59.145.165.106</title>
<path fill="none" stroke="blue" d="M652.43,-460.461C647.499,-448.756 639.744,-434.009 629,-424 622.031,-417.508 613.726,-411.999 605.132,-407.374"/>
<polygon fill="blue" stroke="blue" points="606.624,-404.207 596.114,-402.871 603.497,-410.47 606.624,-404.207"/>
<text text-anchor="middle" x="686" y="-429.4" font-family="Times Roman,serif" font-size="14.00">172.82 ms,6</text>
</g>
<!-- 125.16.67.33&#45;&gt;182.79.247.154 -->
<g id="edge56" class="edge"><title>125.16.67.33&#45;&gt;182.79.247.154</title>
<path fill="none" stroke="green" d="M345.367,-552.275C343.649,-540.787 343.631,-526.346 351,-516 355.89,-509.134 369.893,-502.509 385.972,-496.809"/>
<polygon fill="green" stroke="green" points="387.262,-500.068 395.626,-493.565 385.032,-493.433 387.262,-500.068"/>
<text text-anchor="middle" x="390.5" y="-521.4" font-family="Times Roman,serif" font-size="14.00">73.58 ms,7</text>
</g>
<!-- 202.78.175.18 -->
<g id="node54" class="node"><title>202.78.175.18</title>
<ellipse fill="none" stroke="black" cx="735" cy="-295" rx="84.8528" ry="18.3848"/>
<text text-anchor="middle" x="735" y="-291.4" font-family="Times Roman,serif" font-size="14.00">202.78.175.18</text>
</g>
<!-- 59.145.165.106&#45;&gt;202.78.175.18 -->
<g id="edge58" class="edge"><title>59.145.165.106&#45;&gt;202.78.175.18</title>
<path fill="none" stroke="blue" d="M612.714,-373.953C633.102,-368.304 655.194,-360.511 674,-350 687.722,-342.33 700.938,-331.067 711.539,-320.727"/>
<polygon fill="blue" stroke="blue" points="714.218,-322.995 718.766,-313.426 709.243,-318.071 714.218,-322.995"/>
<text text-anchor="middle" x="741" y="-337.4" font-family="Times Roman,serif" font-size="14.00">191.74 ms,7</text>
</g>
<!-- 59.145.165.106&#45;&gt;202.78.175.18 -->
<g id="edge66" class="edge"><title>59.145.165.106&#45;&gt;202.78.175.18</title>
<path fill="none" stroke="green" d="M558.064,-368.553C565.602,-356.425 577.003,-341.158 591,-332 603.129,-324.065 632.329,-315.971 661.288,-309.385"/>
<polygon fill="green" stroke="green" points="662.071,-312.796 671.074,-307.212 660.553,-305.963 662.071,-312.796"/>
<text text-anchor="middle" x="630.5" y="-337.4" font-family="Times Roman,serif" font-size="14.00">67.28 ms,9</text>
</g>
<!-- 202.78.168.30 -->
<g id="node57" class="node"><title>202.78.168.30</title>
<ellipse fill="none" stroke="black" cx="620" cy="-203" rx="84.8528" ry="18.3848"/>
<text text-anchor="middle" x="620" y="-199.4" font-family="Times Roman,serif" font-size="14.00">202.78.168.30</text>
</g>
<!-- 59.145.165.106&#45;&gt;202.78.168.30 -->
<g id="edge62" class="edge"><title>59.145.165.106&#45;&gt;202.78.168.30</title>
<path fill="none" stroke="blue" d="M545.102,-368.489C542.364,-345.755 540.343,-306.462 553,-276 560.741,-257.369 575.451,-240.487 589.121,-227.663"/>
<polygon fill="blue" stroke="blue" points="591.466,-230.261 596.557,-220.97 586.783,-225.058 591.466,-230.261"/>
<text text-anchor="middle" x="597" y="-291.4" font-family="Times Roman,serif" font-size="14.00">159.26 ms,8</text>
</g>
<!-- 202.78.175.14 -->
<g id="node61" class="node"><title>202.78.175.14</title>
<ellipse fill="none" stroke="black" cx="423" cy="-295" rx="84.8528" ry="18.3848"/>
<text text-anchor="middle" x="423" y="-291.4" font-family="Times Roman,serif" font-size="14.00">202.78.175.14</text>
</g>
<!-- 59.145.165.106&#45;&gt;202.78.175.14 -->
<g id="edge68" class="edge"><title>59.145.165.106&#45;&gt;202.78.175.14</title>
<path fill="none" stroke="green" d="M489.968,-372.748C476.064,-367.316 462.059,-359.94 451,-350 442.872,-342.694 436.776,-332.479 432.383,-322.832"/>
<polygon fill="green" stroke="green" points="435.586,-321.421 428.545,-313.504 429.113,-324.084 435.586,-321.421"/>
<text text-anchor="middle" x="490.5" y="-337.4" font-family="Times Roman,serif" font-size="14.00">70.24 ms,9</text>
</g>
<!-- 202.78.175.18&#45;&gt;202.78.168.30 -->
<g id="edge64" class="edge"><title>202.78.175.18&#45;&gt;202.78.168.30</title>
<path fill="none" stroke="blue" d="M675.476,-281.78C652.476,-275.401 630,-267.148 623,-258 617.343,-250.606 615.554,-240.881 615.511,-231.667"/>
<polygon fill="blue" stroke="blue" points="619.008,-231.819 616.089,-221.634 612.019,-231.416 619.008,-231.819"/>
<text text-anchor="middle" x="667" y="-245.4" font-family="Times Roman,serif" font-size="14.00">188.71 ms,8</text>
</g>
<!-- 202.78.175.18&#45;&gt;202.78.168.30 -->
<g id="edge76" class="edge"><title>202.78.175.18&#45;&gt;202.78.168.30</title>
<path fill="none" stroke="green" d="M730.732,-276.334C727.193,-264.577 721.07,-249.819 711,-240 703.24,-232.434 693.726,-226.344 683.806,-221.464"/>
<polygon fill="green" stroke="green" points="685.174,-218.242 674.62,-217.315 682.293,-224.622 685.174,-218.242"/>
<text text-anchor="middle" x="767" y="-245.4" font-family="Times Roman,serif" font-size="14.00">68.52 ms,10</text>
</g>
<!-- 202.78.173.58 -->
<g id="node63" class="node"><title>202.78.173.58</title>
<ellipse fill="none" stroke="black" cx="656" cy="-111" rx="84.8528" ry="18.3848"/>
<text text-anchor="middle" x="656" y="-107.4" font-family="Times Roman,serif" font-size="14.00">202.78.173.58</text>
</g>
<!-- 202.78.168.30&#45;&gt;202.78.173.58 -->
<g id="edge70" class="edge"><title>202.78.168.30&#45;&gt;202.78.173.58</title>
<path fill="none" stroke="blue" d="M653.909,-185.95C661.17,-180.609 667.886,-173.976 672,-166 676.352,-157.562 675.233,-147.769 672.118,-138.804"/>
<polygon fill="blue" stroke="blue" points="675.285,-137.309 668.119,-129.506 668.854,-140.075 675.285,-137.309"/>
<text text-anchor="middle" x="718" y="-153.4" font-family="Times Roman,serif" font-size="14.00">212.79 ms,9</text>
</g>
<!-- 202.78.168.30&#45;&gt;202.78.173.58 -->
<g id="edge84" class="edge"><title>202.78.168.30&#45;&gt;202.78.173.58</title>
<path fill="none" stroke="green" d="M594.272,-185.357C582.144,-174.778 571.924,-160.914 580,-148 584.213,-141.264 590.043,-135.722 596.618,-131.17"/>
<polygon fill="green" stroke="green" points="598.542,-134.097 605.279,-125.92 594.913,-128.111 598.542,-134.097"/>
<text text-anchor="middle" x="624" y="-153.4" font-family="Times Roman,serif" font-size="14.00">75.05 ms,11</text>
</g>
<!-- 202.78.175.14&#45;&gt;202.78.168.30 -->
<g id="edge78" class="edge"><title>202.78.175.14&#45;&gt;202.78.168.30</title>
<path fill="none" stroke="green" d="M424.764,-276.322C426.898,-264.251 431.609,-249.142 442,-240 443.06,-239.067 498.583,-227.61 547.334,-217.689"/>
<polygon fill="green" stroke="green" points="548.191,-221.087 557.293,-215.665 546.796,-214.227 548.191,-221.087"/>
<text text-anchor="middle" x="486" y="-245.4" font-family="Times Roman,serif" font-size="14.00">70.21 ms,10</text>
</g>
<!-- 202.78.173.58&#45;&gt;202.78.175.200 -->
<g id="edge82" class="edge"><title>202.78.173.58&#45;&gt;202.78.175.200</title>
<path fill="none" stroke="blue" d="M650.434,-92.3671C646.684,-81.3205 641.122,-67.3142 634,-56 631.582,-52.1586 628.742,-48.3503 625.752,-44.7203"/>
<polygon fill="blue" stroke="blue" points="628.301,-42.3182 619.072,-37.1148 623.041,-46.9378 628.301,-42.3182"/>
<text text-anchor="middle" x="691.5" y="-61.4" font-family="Times Roman,serif" font-size="14.00">174.75 ms,10</text>
</g>
<!-- 202.78.173.58&#45;&gt;202.78.175.200 -->
<g id="edge86" class="edge"><title>202.78.173.58&#45;&gt;202.78.175.200</title>
<path fill="none" stroke="blue" d="M711.496,-96.8421C736.643,-87.65 757.967,-74.0093 744,-56 735.899,-45.5545 711.231,-37.5447 684.548,-31.6936"/>
<polygon fill="blue" stroke="blue" points="685.157,-28.2453 674.653,-29.635 683.731,-35.0986 685.157,-28.2453"/>
<text text-anchor="middle" x="796.5" y="-61.4" font-family="Times Roman,serif" font-size="14.00">233.66 ms,11</text>
</g>
<!-- 202.78.173.58&#45;&gt;202.78.175.200 -->
<g id="edge88" class="edge"><title>202.78.173.58&#45;&gt;202.78.175.200</title>
<path fill="none" stroke="green" d="M594.871,-97.9966C571.527,-91.6862 548.851,-83.4259 542,-74 533.42,-62.1941 541.678,-50.8057 554.389,-41.4844"/>
<polygon fill="green" stroke="green" points="556.344,-44.3878 562.767,-35.9624 552.492,-38.543 556.344,-44.3878"/>
<text text-anchor="middle" x="586" y="-61.4" font-family="Times Roman,serif" font-size="14.00">71.40 ms,12</text>
</g>
</g>
</svg>
