<?xml version="1.0" encoding="UTF-8" standalone="no"?>
<!DOCTYPE svg PUBLIC "-//W3C//DTD SVG 1.1//EN"
 "http://www.w3.org/Graphics/SVG/1.1/DTD/svg11.dtd">
<!-- Generated by graphviz version 2.26.3 (20100126.1600)
 -->
<!-- Title: G Pages: 1 -->
<svg width="1550pt" height="1098pt"
 viewBox="0.00 0.00 1550.00 1098.00" xmlns="http://www.w3.org/2000/svg" xmlns:xlink="http://www.w3.org/1999/xlink">
<g id="graph1" class="graph" transform="scale(1 1) rotate(0) translate(4 1094)">
<title>G</title>
<polygon fill="white" stroke="white" points="-4,5 -4,-1094 1547,-1094 1547,5 -4,5"/>
<!-- delhi -->
<g id="node1" class="node"><title>delhi</title>
<ellipse fill="none" stroke="black" cx="441" cy="-979" rx="34.8574" ry="18.3848"/>
<text text-anchor="middle" x="441" y="-975.4" font-family="Times Roman,serif" font-size="14.00">delhi</text>
</g>
<!-- 10.155.72.61 -->
<g id="node3" class="node"><title>10.155.72.61</title>
<ellipse fill="none" stroke="black" cx="441" cy="-867" rx="77.9889" ry="18.3848"/>
<text text-anchor="middle" x="441" y="-863.4" font-family="Times Roman,serif" font-size="14.00">10.155.72.61</text>
</g>
<!-- delhi&#45;&gt;10.155.72.61 -->
<g id="edge2" class="edge"><title>delhi&#45;&gt;10.155.72.61</title>
<path fill="none" stroke="green" d="M441,-960.254C441,-942.729 441,-916.296 441,-896.041"/>
<polygon fill="green" stroke="green" points="444.5,-895.807 441,-885.807 437.5,-895.807 444.5,-895.807"/>
<text text-anchor="middle" x="480.5" y="-919.4" font-family="Times Roman,serif" font-size="14.00">56.84 ms,1</text>
</g>
<!-- 10.155.87.177 -->
<g id="node10" class="node"><title>10.155.87.177</title>
<ellipse fill="none" stroke="black" cx="368" cy="-775" rx="84.8528" ry="18.3848"/>
<text text-anchor="middle" x="368" y="-771.4" font-family="Times Roman,serif" font-size="14.00">10.155.87.177</text>
</g>
<!-- 10.155.72.61&#45;&gt;10.155.87.177 -->
<g id="edge8" class="edge"><title>10.155.72.61&#45;&gt;10.155.87.177</title>
<path fill="none" stroke="green" d="M426.227,-848.382C415.471,-834.826 400.756,-816.282 388.81,-801.227"/>
<polygon fill="green" stroke="green" points="391.459,-798.934 382.502,-793.276 385.976,-803.285 391.459,-798.934"/>
<text text-anchor="middle" x="451.5" y="-817.4" font-family="Times Roman,serif" font-size="14.00">72.26 ms,2</text>
</g>
<!-- 10.155.87.181 -->
<g id="node12" class="node"><title>10.155.87.181</title>
<ellipse fill="none" stroke="black" cx="556" cy="-775" rx="84.8528" ry="18.3848"/>
<text text-anchor="middle" x="556" y="-771.4" font-family="Times Roman,serif" font-size="14.00">10.155.87.181</text>
</g>
<!-- 10.155.72.61&#45;&gt;10.155.87.181 -->
<g id="edge10" class="edge"><title>10.155.72.61&#45;&gt;10.155.87.181</title>
<path fill="none" stroke="green" d="M465.655,-849.248C473.809,-843.247 482.872,-836.435 491,-830 503.124,-820.401 516.193,-809.463 527.411,-799.884"/>
<polygon fill="green" stroke="green" points="529.904,-802.356 535.211,-793.187 525.344,-797.045 529.904,-802.356"/>
<text text-anchor="middle" x="552.5" y="-817.4" font-family="Times Roman,serif" font-size="14.00">55.88 ms,2</text>
</g>
<!-- AP -->
<g id="node4" class="node"><title>AP</title>
<ellipse fill="none" stroke="black" cx="1017" cy="-295" rx="27" ry="18.3848"/>
<text text-anchor="middle" x="1017" y="-291.4" font-family="Times Roman,serif" font-size="14.00">AP</text>
</g>
<!-- 10.152.170.162 -->
<g id="node6" class="node"><title>10.152.170.162</title>
<ellipse fill="none" stroke="black" cx="927" cy="-203" rx="91.2168" ry="18.3848"/>
<text text-anchor="middle" x="927" y="-199.4" font-family="Times Roman,serif" font-size="14.00">10.152.170.162</text>
</g>
<!-- AP&#45;&gt;10.152.170.162 -->
<g id="edge4" class="edge"><title>AP&#45;&gt;10.152.170.162</title>
<path fill="none" stroke="red" d="M998.821,-280.913C990.639,-274.275 981.035,-266.056 973,-258 964.162,-249.138 955.17,-238.753 947.509,-229.408"/>
<polygon fill="red" stroke="red" points="950.157,-227.117 941.156,-221.528 944.708,-231.51 950.157,-227.117"/>
<text text-anchor="middle" x="1017" y="-245.4" font-family="Times Roman,serif" font-size="14.00">149.43 ms,2</text>
</g>
<!-- 10.152.170.170 -->
<g id="node8" class="node"><title>10.152.170.170</title>
<ellipse fill="none" stroke="black" cx="1127" cy="-203" rx="91.2168" ry="18.3848"/>
<text text-anchor="middle" x="1127" y="-199.4" font-family="Times Roman,serif" font-size="14.00">10.152.170.170</text>
</g>
<!-- AP&#45;&gt;10.152.170.170 -->
<g id="edge6" class="edge"><title>AP&#45;&gt;10.152.170.170</title>
<path fill="none" stroke="red" d="M1034.19,-280.625C1051.15,-266.437 1077.42,-244.471 1097.68,-227.521"/>
<polygon fill="red" stroke="red" points="1099.97,-230.167 1105.4,-221.066 1095.48,-224.797 1099.97,-230.167"/>
<text text-anchor="middle" x="1120.5" y="-245.4" font-family="Times Roman,serif" font-size="14.00">85.74 ms,2</text>
</g>
<!-- 10.152.170.166 -->
<g id="node21" class="node"><title>10.152.170.166</title>
<ellipse fill="none" stroke="black" cx="927" cy="-111" rx="91.2168" ry="18.3848"/>
<text text-anchor="middle" x="927" y="-107.4" font-family="Times Roman,serif" font-size="14.00">10.152.170.166</text>
</g>
<!-- 10.152.170.162&#45;&gt;10.152.170.166 -->
<g id="edge18" class="edge"><title>10.152.170.162&#45;&gt;10.152.170.166</title>
<path fill="none" stroke="red" d="M927,-184.382C927,-171.538 927,-154.216 927,-139.627"/>
<polygon fill="red" stroke="red" points="930.5,-139.59 927,-129.59 923.5,-139.59 930.5,-139.59"/>
<text text-anchor="middle" x="971" y="-153.4" font-family="Times Roman,serif" font-size="14.00">202.65 ms,3</text>
</g>
<!-- 10.152.170.174 -->
<g id="node19" class="node"><title>10.152.170.174</title>
<ellipse fill="none" stroke="black" cx="1127" cy="-111" rx="91.2168" ry="18.3848"/>
<text text-anchor="middle" x="1127" y="-107.4" font-family="Times Roman,serif" font-size="14.00">10.152.170.174</text>
</g>
<!-- 10.152.170.170&#45;&gt;10.152.170.174 -->
<g id="edge16" class="edge"><title>10.152.170.170&#45;&gt;10.152.170.174</title>
<path fill="none" stroke="red" d="M1127,-184.382C1127,-171.538 1127,-154.216 1127,-139.627"/>
<polygon fill="red" stroke="red" points="1130.5,-139.59 1127,-129.59 1123.5,-139.59 1130.5,-139.59"/>
<text text-anchor="middle" x="1166.5" y="-153.4" font-family="Times Roman,serif" font-size="14.00">97.05 ms,3</text>
</g>
<!-- 10.155.68.4 -->
<g id="node23" class="node"><title>10.155.68.4</title>
<ellipse fill="none" stroke="black" cx="378" cy="-683" rx="72.1249" ry="18.3848"/>
<text text-anchor="middle" x="378" y="-679.4" font-family="Times Roman,serif" font-size="14.00">10.155.68.4</text>
</g>
<!-- 10.155.87.177&#45;&gt;10.155.68.4 -->
<g id="edge22" class="edge"><title>10.155.87.177&#45;&gt;10.155.68.4</title>
<path fill="none" stroke="green" d="M370.024,-756.382C371.42,-743.538 373.303,-726.216 374.888,-711.627"/>
<polygon fill="green" stroke="green" points="378.378,-711.91 375.979,-701.59 371.419,-711.153 378.378,-711.91"/>
<text text-anchor="middle" x="413.5" y="-725.4" font-family="Times Roman,serif" font-size="14.00">77.29 ms,3</text>
</g>
<!-- 10.155.87.181&#45;&gt;10.155.68.4 -->
<g id="edge20" class="edge"><title>10.155.87.181&#45;&gt;10.155.68.4</title>
<path fill="none" stroke="green" d="M525.962,-757.603C506.484,-746.499 480.459,-731.992 457,-720 446.149,-714.453 434.314,-708.737 423.185,-703.507"/>
<polygon fill="green" stroke="green" points="424.583,-700.297 414.041,-699.243 421.625,-706.641 424.583,-700.297"/>
<text text-anchor="middle" x="530.5" y="-725.4" font-family="Times Roman,serif" font-size="14.00">61.63 ms,3</text>
</g>
<!-- TN -->
<g id="node13" class="node"><title>TN</title>
<ellipse fill="none" stroke="black" cx="1020" cy="-1071" rx="27" ry="18.3848"/>
<text text-anchor="middle" x="1020" y="-1067.4" font-family="Times Roman,serif" font-size="14.00">TN</text>
</g>
<!-- 10.152.160.170 -->
<g id="node15" class="node"><title>10.152.160.170</title>
<ellipse fill="none" stroke="black" cx="1106" cy="-923" rx="91.2168" ry="18.3848"/>
<text text-anchor="middle" x="1106" y="-919.4" font-family="Times Roman,serif" font-size="14.00">10.152.160.170</text>
</g>
<!-- TN&#45;&gt;10.152.160.170 -->
<g id="edge12" class="edge"><title>TN&#45;&gt;10.152.160.170</title>
<path fill="none" stroke="blue" d="M1038.48,-1057.4C1046.22,-1050.98 1054.84,-1042.8 1061,-1034 1078.87,-1008.48 1091.24,-974.81 1098.42,-951.272"/>
<polygon fill="blue" stroke="blue" points="1101.82,-952.128 1101.27,-941.547 1095.1,-950.159 1101.82,-952.128"/>
<text text-anchor="middle" x="1115" y="-1021.4" font-family="Times Roman,serif" font-size="14.00">120.01 ms,2</text>
</g>
<!-- 10.152.160.162 -->
<g id="node17" class="node"><title>10.152.160.162</title>
<ellipse fill="none" stroke="black" cx="942" cy="-979" rx="91.2168" ry="18.3848"/>
<text text-anchor="middle" x="942" y="-975.4" font-family="Times Roman,serif" font-size="14.00">10.152.160.162</text>
</g>
<!-- TN&#45;&gt;10.152.160.162 -->
<g id="edge14" class="edge"><title>TN&#45;&gt;10.152.160.162</title>
<path fill="none" stroke="blue" d="M1000.24,-1058.11C991.224,-1051.6 980.839,-1043.15 973,-1034 965.939,-1025.76 959.703,-1015.67 954.71,-1006.39"/>
<polygon fill="blue" stroke="blue" points="957.82,-1004.78 950.147,-997.479 951.59,-1007.98 957.82,-1004.78"/>
<text text-anchor="middle" x="1017" y="-1021.4" font-family="Times Roman,serif" font-size="14.00">121.58 ms,2</text>
</g>
<!-- 10.152.161.174 -->
<g id="node28" class="node"><title>10.152.161.174</title>
<ellipse fill="none" stroke="black" cx="1138" cy="-775" rx="91.2168" ry="18.3848"/>
<text text-anchor="middle" x="1138" y="-771.4" font-family="Times Roman,serif" font-size="14.00">10.152.161.174</text>
</g>
<!-- 10.152.160.170&#45;&gt;10.152.161.174 -->
<g id="edge26" class="edge"><title>10.152.160.170&#45;&gt;10.152.161.174</title>
<path fill="none" stroke="blue" d="M1110.05,-904.256C1115.53,-878.901 1125.36,-833.439 1131.78,-803.75"/>
<polygon fill="blue" stroke="blue" points="1135.29,-804.106 1133.98,-793.592 1128.45,-802.627 1135.29,-804.106"/>
<text text-anchor="middle" x="1166" y="-863.4" font-family="Times Roman,serif" font-size="14.00">132.41 ms,3</text>
</g>
<!-- 10.152.160.166 -->
<g id="node26" class="node"><title>10.152.160.166</title>
<ellipse fill="none" stroke="black" cx="904" cy="-867" rx="91.2168" ry="18.3848"/>
<text text-anchor="middle" x="904" y="-863.4" font-family="Times Roman,serif" font-size="14.00">10.152.160.166</text>
</g>
<!-- 10.152.160.162&#45;&gt;10.152.160.166 -->
<g id="edge24" class="edge"><title>10.152.160.162&#45;&gt;10.152.160.166</title>
<path fill="none" stroke="blue" d="M928.037,-960.576C924.281,-954.872 920.556,-948.399 918,-942 912.167,-927.395 908.733,-910.204 906.727,-895.967"/>
<polygon fill="blue" stroke="blue" points="910.164,-895.24 905.456,-885.748 903.218,-896.104 910.164,-895.24"/>
<text text-anchor="middle" x="962" y="-919.4" font-family="Times Roman,serif" font-size="14.00">123.10 ms,3</text>
</g>
<!-- 218.248.6.135 -->
<g id="node84" class="node"><title>218.248.6.135</title>
<ellipse fill="none" stroke="black" cx="813" cy="-19" rx="84.8528" ry="18.3848"/>
<text text-anchor="middle" x="813" y="-15.4" font-family="Times Roman,serif" font-size="14.00">218.248.6.135</text>
</g>
<!-- 10.152.170.174&#45;&gt;218.248.6.135 -->
<g id="edge90" class="edge"><title>10.152.170.174&#45;&gt;218.248.6.135</title>
<path fill="none" stroke="red" d="M1088.11,-94.1705C1059.67,-82.3245 1019.94,-66.7294 984,-56 953.275,-46.8268 918.812,-38.9273 888.918,-32.811"/>
<polygon fill="red" stroke="red" points="889.462,-29.3502 878.967,-30.8058 888.079,-36.2123 889.462,-29.3502"/>
<text text-anchor="middle" x="1083.5" y="-61.4" font-family="Times Roman,serif" font-size="14.00">207.56 ms,12</text>
</g>
<!-- 10.152.170.166&#45;&gt;218.248.6.135 -->
<g id="edge92" class="edge"><title>10.152.170.166&#45;&gt;218.248.6.135</title>
<path fill="none" stroke="red" d="M906.169,-92.8664C893.536,-81.9969 877.009,-68.0014 862,-56 856.63,-51.7061 850.856,-47.2272 845.221,-42.929"/>
<polygon fill="red" stroke="red" points="847.216,-40.049 837.13,-36.8037 842.99,-45.6301 847.216,-40.049"/>
<text text-anchor="middle" x="931.5" y="-61.4" font-family="Times Roman,serif" font-size="14.00">181.87 ms,12</text>
</g>
<!-- 10.155.68.76 -->
<g id="node30" class="node"><title>10.155.68.76</title>
<ellipse fill="none" stroke="black" cx="378" cy="-591" rx="77.9889" ry="18.3848"/>
<text text-anchor="middle" x="378" y="-587.4" font-family="Times Roman,serif" font-size="14.00">10.155.68.76</text>
</g>
<!-- 10.155.68.4&#45;&gt;10.155.68.76 -->
<g id="edge28" class="edge"><title>10.155.68.4&#45;&gt;10.155.68.76</title>
<path fill="none" stroke="green" d="M378,-664.382C378,-651.538 378,-634.216 378,-619.627"/>
<polygon fill="green" stroke="green" points="381.5,-619.59 378,-609.59 374.5,-619.59 381.5,-619.59"/>
<text text-anchor="middle" x="417.5" y="-633.4" font-family="Times Roman,serif" font-size="14.00">74.51 ms,4</text>
</g>
<!-- 10.155.68.155 -->
<g id="node34" class="node"><title>10.155.68.155</title>
<ellipse fill="none" stroke="black" cx="484" cy="-535" rx="84.8528" ry="18.3848"/>
<text text-anchor="middle" x="484" y="-531.4" font-family="Times Roman,serif" font-size="14.00">10.155.68.155</text>
</g>
<!-- 10.155.68.4&#45;&gt;10.155.68.155 -->
<g id="edge32" class="edge"><title>10.155.68.4&#45;&gt;10.155.68.155</title>
<path fill="none" stroke="green" d="M428.368,-669.51C440.614,-664.033 452.59,-656.445 461,-646 479.707,-622.766 484.325,-588.133 484.98,-563.745"/>
<polygon fill="green" stroke="green" points="488.48,-563.682 485.043,-553.66 481.48,-563.638 488.48,-563.682"/>
<text text-anchor="middle" x="511.5" y="-633.4" font-family="Times Roman,serif" font-size="14.00">43.66 ms,5</text>
</g>
<!-- 223.224.40.67 -->
<g id="node36" class="node"><title>223.224.40.67</title>
<ellipse fill="none" stroke="black" cx="315" cy="-479" rx="84.8528" ry="18.3848"/>
<text text-anchor="middle" x="315" y="-475.4" font-family="Times Roman,serif" font-size="14.00">223.224.40.67</text>
</g>
<!-- 10.155.68.4&#45;&gt;223.224.40.67 -->
<g id="edge36" class="edge"><title>10.155.68.4&#45;&gt;223.224.40.67</title>
<path fill="none" stroke="green" d="M316.542,-673.135C279.459,-663.674 235.058,-645.329 212,-610 185.906,-570.02 236.251,-527.15 275.332,-501.728"/>
<polygon fill="green" stroke="green" points="277.385,-504.57 283.967,-496.268 273.645,-498.654 277.385,-504.57"/>
<text text-anchor="middle" x="251.5" y="-587.4" font-family="Times Roman,serif" font-size="14.00">59.19 ms,5</text>
</g>
<!-- 125.17.12.121 -->
<g id="node32" class="node"><title>125.17.12.121</title>
<ellipse fill="none" stroke="black" cx="756" cy="-775" rx="84.8528" ry="18.3848"/>
<text text-anchor="middle" x="756" y="-771.4" font-family="Times Roman,serif" font-size="14.00">125.17.12.121</text>
</g>
<!-- 10.152.160.166&#45;&gt;125.17.12.121 -->
<g id="edge30" class="edge"><title>10.152.160.166&#45;&gt;125.17.12.121</title>
<path fill="none" stroke="blue" d="M875.464,-849.261C852.021,-834.689 818.638,-813.937 793.118,-798.073"/>
<polygon fill="blue" stroke="blue" points="794.789,-794.991 784.448,-792.684 791.093,-800.936 794.789,-794.991"/>
<text text-anchor="middle" x="887" y="-817.4" font-family="Times Roman,serif" font-size="14.00">115.31 ms,4</text>
</g>
<!-- 182.79.254.69 -->
<g id="node39" class="node"><title>182.79.254.69</title>
<ellipse fill="none" stroke="black" cx="1332" cy="-683" rx="84.8528" ry="18.3848"/>
<text text-anchor="middle" x="1332" y="-679.4" font-family="Times Roman,serif" font-size="14.00">182.79.254.69</text>
</g>
<!-- 10.152.161.174&#45;&gt;182.79.254.69 -->
<g id="edge38" class="edge"><title>10.152.161.174&#45;&gt;182.79.254.69</title>
<path fill="none" stroke="blue" d="M1181.49,-758.668C1196.97,-752.553 1214.41,-745.309 1230,-738 1251.13,-728.091 1274.06,-715.867 1292.82,-705.462"/>
<polygon fill="blue" stroke="blue" points="1294.64,-708.452 1301.66,-700.518 1291.22,-702.342 1294.64,-708.452"/>
<text text-anchor="middle" x="1308" y="-725.4" font-family="Times Roman,serif" font-size="14.00">110.76 ms,5</text>
</g>
<!-- 182.79.243.18 -->
<g id="node41" class="node"><title>182.79.243.18</title>
<ellipse fill="none" stroke="black" cx="944" cy="-683" rx="84.8528" ry="18.3848"/>
<text text-anchor="middle" x="944" y="-679.4" font-family="Times Roman,serif" font-size="14.00">182.79.243.18</text>
</g>
<!-- 10.152.161.174&#45;&gt;182.79.243.18 -->
<g id="edge40" class="edge"><title>10.152.161.174&#45;&gt;182.79.243.18</title>
<path fill="none" stroke="blue" d="M1094.51,-758.668C1079.03,-752.553 1061.59,-745.309 1046,-738 1024.87,-728.091 1001.94,-715.867 983.185,-705.462"/>
<polygon fill="blue" stroke="blue" points="984.776,-702.342 974.339,-700.518 981.361,-708.452 984.776,-702.342"/>
<text text-anchor="middle" x="1090" y="-725.4" font-family="Times Roman,serif" font-size="14.00">110.24 ms,5</text>
</g>
<!-- 182.79.248.250 -->
<g id="node45" class="node"><title>182.79.248.250</title>
<ellipse fill="none" stroke="black" cx="1138" cy="-683" rx="91.2168" ry="18.3848"/>
<text text-anchor="middle" x="1138" y="-679.4" font-family="Times Roman,serif" font-size="14.00">182.79.248.250</text>
</g>
<!-- 10.152.161.174&#45;&gt;182.79.248.250 -->
<g id="edge44" class="edge"><title>10.152.161.174&#45;&gt;182.79.248.250</title>
<path fill="none" stroke="blue" d="M1138,-756.382C1138,-743.538 1138,-726.216 1138,-711.627"/>
<polygon fill="blue" stroke="blue" points="1141.5,-711.59 1138,-701.59 1134.5,-711.59 1141.5,-711.59"/>
<text text-anchor="middle" x="1182" y="-725.4" font-family="Times Roman,serif" font-size="14.00">110.24 ms,5</text>
</g>
<!-- 10.152.161.174&#45;&gt;218.248.6.135 -->
<g id="edge104" class="edge"><title>10.152.161.174&#45;&gt;218.248.6.135</title>
<path fill="none" stroke="blue" d="M1219.46,-766.738C1310.41,-755.198 1445,-730.155 1445,-683 1445,-683 1445,-683 1445,-111 1445,-82.138 1412.3,-77.0975 1308,-56 1233.75,-40.9814 1028.03,-29.1407 906.429,-23.1962"/>
<polygon fill="blue" stroke="blue" points="906.536,-19.6974 896.378,-22.7089 906.197,-26.6892 906.536,-19.6974"/>
<text text-anchor="middle" x="1493.5" y="-383.4" font-family="Times Roman,serif" font-size="14.00">197.48 ms,12</text>
</g>
<!-- 10.155.68.76&#45;&gt;223.224.40.67 -->
<g id="edge34" class="edge"><title>10.155.68.76&#45;&gt;223.224.40.67</title>
<path fill="none" stroke="green" d="M334.2,-575.563C324.971,-570.201 316.403,-563.155 311,-554 302.895,-540.265 303.447,-522.533 306.235,-507.76"/>
<polygon fill="green" stroke="green" points="309.736,-508.156 308.569,-497.625 302.914,-506.585 309.736,-508.156"/>
<text text-anchor="middle" x="350.5" y="-531.4" font-family="Times Roman,serif" font-size="14.00">51.78 ms,5</text>
</g>
<!-- 182.79.252.182 -->
<g id="node43" class="node"><title>182.79.252.182</title>
<ellipse fill="none" stroke="black" cx="562" cy="-683" rx="91.2168" ry="18.3848"/>
<text text-anchor="middle" x="562" y="-679.4" font-family="Times Roman,serif" font-size="14.00">182.79.252.182</text>
</g>
<!-- 125.17.12.121&#45;&gt;182.79.252.182 -->
<g id="edge42" class="edge"><title>125.17.12.121&#45;&gt;182.79.252.182</title>
<path fill="none" stroke="blue" d="M712.975,-758.852C697.384,-752.698 679.743,-745.382 664,-738 642.867,-728.091 619.94,-715.867 601.185,-705.462"/>
<polygon fill="blue" stroke="blue" points="602.776,-702.342 592.339,-700.518 599.361,-708.452 602.776,-702.342"/>
<text text-anchor="middle" x="708" y="-725.4" font-family="Times Roman,serif" font-size="14.00">109.70 ms,5</text>
</g>
<!-- 182.79.247.30 -->
<g id="node47" class="node"><title>182.79.247.30</title>
<ellipse fill="none" stroke="black" cx="756" cy="-683" rx="84.8528" ry="18.3848"/>
<text text-anchor="middle" x="756" y="-679.4" font-family="Times Roman,serif" font-size="14.00">182.79.247.30</text>
</g>
<!-- 125.17.12.121&#45;&gt;182.79.247.30 -->
<g id="edge46" class="edge"><title>125.17.12.121&#45;&gt;182.79.247.30</title>
<path fill="none" stroke="blue" d="M756,-756.382C756,-743.538 756,-726.216 756,-711.627"/>
<polygon fill="blue" stroke="blue" points="759.5,-711.59 756,-701.59 752.5,-711.59 759.5,-711.59"/>
<text text-anchor="middle" x="800" y="-725.4" font-family="Times Roman,serif" font-size="14.00">130.68 ms,5</text>
</g>
<!-- 125.16.67.33 -->
<g id="node49" class="node"><title>125.16.67.33</title>
<ellipse fill="none" stroke="black" cx="469" cy="-387" rx="77.9889" ry="18.3848"/>
<text text-anchor="middle" x="469" y="-383.4" font-family="Times Roman,serif" font-size="14.00">125.16.67.33</text>
</g>
<!-- 10.155.68.155&#45;&gt;125.16.67.33 -->
<g id="edge48" class="edge"><title>10.155.68.155&#45;&gt;125.16.67.33</title>
<path fill="none" stroke="green" d="M482.1,-516.256C479.531,-490.901 474.923,-445.439 471.914,-415.75"/>
<polygon fill="green" stroke="green" points="475.375,-415.188 470.884,-405.592 468.411,-415.894 475.375,-415.188"/>
<text text-anchor="middle" x="520.5" y="-475.4" font-family="Times Roman,serif" font-size="14.00">50.20 ms,6</text>
</g>
<!-- 223.224.40.67&#45;&gt;125.16.67.33 -->
<g id="edge50" class="edge"><title>223.224.40.67&#45;&gt;125.16.67.33</title>
<path fill="none" stroke="green" d="M333.765,-460.766C346.383,-449.185 363.796,-434.462 381,-424 391.838,-417.409 404.062,-411.452 415.874,-406.338"/>
<polygon fill="green" stroke="green" points="417.352,-409.514 425.224,-402.423 414.648,-403.057 417.352,-409.514"/>
<text text-anchor="middle" x="420.5" y="-429.4" font-family="Times Roman,serif" font-size="14.00">55.02 ms,6</text>
</g>
<!-- 121.240.1.201 -->
<g id="node52" class="node"><title>121.240.1.201</title>
<ellipse fill="none" stroke="black" cx="1064" cy="-591" rx="84.8528" ry="18.3848"/>
<text text-anchor="middle" x="1064" y="-587.4" font-family="Times Roman,serif" font-size="14.00">121.240.1.201</text>
</g>
<!-- 182.79.254.69&#45;&gt;121.240.1.201 -->
<g id="edge56" class="edge"><title>182.79.254.69&#45;&gt;121.240.1.201</title>
<path fill="none" stroke="blue" d="M1294.93,-666.21C1268.51,-654.606 1231.98,-639.289 1199,-628 1176.97,-620.458 1152.51,-613.378 1130.54,-607.471"/>
<polygon fill="blue" stroke="blue" points="1131.2,-604.025 1120.64,-604.842 1129.4,-610.791 1131.2,-604.025"/>
<text text-anchor="middle" x="1287" y="-633.4" font-family="Times Roman,serif" font-size="14.00">109.43 ms,6</text>
</g>
<!-- 182.79.243.18&#45;&gt;121.240.1.201 -->
<g id="edge60" class="edge"><title>182.79.243.18&#45;&gt;121.240.1.201</title>
<path fill="none" stroke="blue" d="M961.114,-664.83C972.21,-653.557 987.29,-639.147 1002,-628 1008.53,-623.05 1015.77,-618.214 1022.93,-613.758"/>
<polygon fill="blue" stroke="blue" points="1025.16,-616.505 1031.9,-608.336 1021.53,-610.515 1025.16,-616.505"/>
<text text-anchor="middle" x="1046" y="-633.4" font-family="Times Roman,serif" font-size="14.00">129.16 ms,6</text>
</g>
<!-- 182.79.252.182&#45;&gt;121.240.1.201 -->
<g id="edge54" class="edge"><title>182.79.252.182&#45;&gt;121.240.1.201</title>
<path fill="none" stroke="blue" d="M608.071,-666.98C645.375,-654.593 699.506,-637.933 748,-628 822.992,-612.64 909.398,-603.067 972.882,-597.517"/>
<polygon fill="blue" stroke="blue" points="973.204,-601.002 982.868,-596.66 972.606,-594.028 973.204,-601.002"/>
<text text-anchor="middle" x="792" y="-633.4" font-family="Times Roman,serif" font-size="14.00">109.65 ms,6</text>
</g>
<!-- 182.79.248.250&#45;&gt;121.240.1.201 -->
<g id="edge58" class="edge"><title>182.79.248.250&#45;&gt;121.240.1.201</title>
<path fill="none" stroke="blue" d="M1123.02,-664.382C1112.12,-650.826 1097.2,-632.282 1085.1,-617.227"/>
<polygon fill="blue" stroke="blue" points="1087.7,-614.874 1078.7,-609.276 1082.24,-619.262 1087.7,-614.874"/>
<text text-anchor="middle" x="1151" y="-633.4" font-family="Times Roman,serif" font-size="14.00">109.43 ms,6</text>
</g>
<!-- 182.79.247.30&#45;&gt;121.240.1.201 -->
<g id="edge52" class="edge"><title>182.79.247.30&#45;&gt;121.240.1.201</title>
<path fill="none" stroke="blue" d="M791.749,-666.11C818.154,-654.157 855.225,-638.457 889,-628 920.316,-618.305 955.563,-610.314 986.173,-604.27"/>
<polygon fill="blue" stroke="blue" points="987.213,-607.634 996.364,-602.296 985.881,-600.762 987.213,-607.634"/>
<text text-anchor="middle" x="933" y="-633.4" font-family="Times Roman,serif" font-size="14.00">124.83 ms,6</text>
</g>
<!-- 59.145.7.229 -->
<g id="node58" class="node"><title>59.145.7.229</title>
<ellipse fill="none" stroke="black" cx="447" cy="-295" rx="77.9889" ry="18.3848"/>
<text text-anchor="middle" x="447" y="-291.4" font-family="Times Roman,serif" font-size="14.00">59.145.7.229</text>
</g>
<!-- 125.16.67.33&#45;&gt;59.145.7.229 -->
<g id="edge62" class="edge"><title>125.16.67.33&#45;&gt;59.145.7.229</title>
<path fill="none" stroke="green" d="M464.548,-368.382C461.477,-355.538 457.334,-338.216 453.846,-323.627"/>
<polygon fill="green" stroke="green" points="457.175,-322.502 451.445,-313.59 450.367,-324.13 457.175,-322.502"/>
<text text-anchor="middle" x="499.5" y="-337.4" font-family="Times Roman,serif" font-size="14.00">48.31 ms,7</text>
</g>
<!-- 203.101.100.181 -->
<g id="node60" class="node"><title>203.101.100.181</title>
<ellipse fill="none" stroke="black" cx="640" cy="-295" rx="97.0803" ry="18.3848"/>
<text text-anchor="middle" x="640" y="-291.4" font-family="Times Roman,serif" font-size="14.00">203.101.100.181</text>
</g>
<!-- 125.16.67.33&#45;&gt;203.101.100.181 -->
<g id="edge64" class="edge"><title>125.16.67.33&#45;&gt;203.101.100.181</title>
<path fill="none" stroke="green" d="M503.454,-370.238C515.979,-364.023 530.198,-356.824 543,-350 562.203,-339.764 583.244,-327.913 600.806,-317.839"/>
<polygon fill="green" stroke="green" points="602.725,-320.773 609.645,-312.751 599.232,-314.707 602.725,-320.773"/>
<text text-anchor="middle" x="614.5" y="-337.4" font-family="Times Roman,serif" font-size="14.00">52.91 ms,7</text>
</g>
<!-- 172.29.251.34 -->
<g id="node62" class="node"><title>172.29.251.34</title>
<ellipse fill="none" stroke="black" cx="1255" cy="-479" rx="84.8528" ry="18.3848"/>
<text text-anchor="middle" x="1255" y="-475.4" font-family="Times Roman,serif" font-size="14.00">172.29.251.34</text>
</g>
<!-- 121.240.1.201&#45;&gt;172.29.251.34 -->
<g id="edge66" class="edge"><title>121.240.1.201&#45;&gt;172.29.251.34</title>
<path fill="none" stroke="blue" d="M1093.84,-573.5C1126.92,-554.103 1180.37,-522.761 1216.56,-501.541"/>
<polygon fill="blue" stroke="blue" points="1218.51,-504.455 1225.37,-496.377 1214.97,-498.416 1218.51,-504.455"/>
<text text-anchor="middle" x="1231" y="-531.4" font-family="Times Roman,serif" font-size="14.00">115.16 ms,7</text>
</g>
<!-- 59.163.206.178 -->
<g id="node67" class="node"><title>59.163.206.178</title>
<ellipse fill="none" stroke="black" cx="1255" cy="-387" rx="91.2168" ry="18.3848"/>
<text text-anchor="middle" x="1255" y="-383.4" font-family="Times Roman,serif" font-size="14.00">59.163.206.178</text>
</g>
<!-- 121.240.1.201&#45;&gt;59.163.206.178 -->
<g id="edge74" class="edge"><title>121.240.1.201&#45;&gt;59.163.206.178</title>
<path fill="none" stroke="blue" d="M1059.61,-572.448C1054.28,-545.036 1048.73,-493.366 1073,-460 1095.88,-428.546 1134.6,-410.627 1170.45,-400.427"/>
<polygon fill="blue" stroke="blue" points="1171.71,-403.713 1180.47,-397.75 1169.9,-396.95 1171.71,-403.713"/>
<text text-anchor="middle" x="1117" y="-475.4" font-family="Times Roman,serif" font-size="14.00">176.22 ms,8</text>
</g>
<!-- 218.100.48.15 -->
<g id="node64" class="node"><title>218.100.48.15</title>
<ellipse fill="none" stroke="black" cx="494" cy="-203" rx="84.8528" ry="18.3848"/>
<text text-anchor="middle" x="494" y="-199.4" font-family="Times Roman,serif" font-size="14.00">218.100.48.15</text>
</g>
<!-- 59.145.7.229&#45;&gt;218.100.48.15 -->
<g id="edge68" class="edge"><title>59.145.7.229&#45;&gt;218.100.48.15</title>
<path fill="none" stroke="green" d="M456.511,-276.382C463.2,-263.289 472.267,-245.542 479.808,-230.78"/>
<polygon fill="green" stroke="green" points="483.07,-232.087 484.503,-221.59 476.837,-228.903 483.07,-232.087"/>
<text text-anchor="middle" x="519" y="-245.4" font-family="Times Roman,serif" font-size="14.00">113.08 ms,8</text>
</g>
<!-- 203.101.100.181&#45;&gt;218.100.48.15 -->
<g id="edge70" class="edge"><title>203.101.100.181&#45;&gt;218.100.48.15</title>
<path fill="none" stroke="green" d="M618.041,-276.842C603.914,-265.573 584.91,-251.164 567,-240 558.318,-234.588 548.746,-229.294 539.47,-224.479"/>
<polygon fill="green" stroke="green" points="540.838,-221.248 530.337,-219.837 537.666,-227.488 540.838,-221.248"/>
<text text-anchor="middle" x="635" y="-245.4" font-family="Times Roman,serif" font-size="14.00">111.36 ms,8</text>
</g>
<!-- 172.29.251.34&#45;&gt;59.163.206.178 -->
<g id="edge72" class="edge"><title>172.29.251.34&#45;&gt;59.163.206.178</title>
<path fill="none" stroke="blue" d="M1255,-460.382C1255,-447.538 1255,-430.216 1255,-415.627"/>
<polygon fill="blue" stroke="blue" points="1258.5,-415.59 1255,-405.59 1251.5,-415.59 1258.5,-415.59"/>
<text text-anchor="middle" x="1299" y="-429.4" font-family="Times Roman,serif" font-size="14.00">149.68 ms,8</text>
</g>
<!-- 218.248.235.181 -->
<g id="node70" class="node"><title>218.248.235.181</title>
<ellipse fill="none" stroke="black" cx="97" cy="-111" rx="97.0803" ry="18.3848"/>
<text text-anchor="middle" x="97" y="-107.4" font-family="Times Roman,serif" font-size="14.00">218.248.235.181</text>
</g>
<!-- 218.100.48.15&#45;&gt;218.248.235.181 -->
<g id="edge76" class="edge"><title>218.100.48.15&#45;&gt;218.248.235.181</title>
<path fill="none" stroke="green" d="M423.466,-192.485C382.767,-185.927 330.746,-176.707 285,-166 241.23,-155.755 192.536,-141.426 155.674,-129.962"/>
<polygon fill="green" stroke="green" points="156.676,-126.608 146.087,-126.962 154.586,-133.289 156.676,-126.608"/>
<text text-anchor="middle" x="329" y="-153.4" font-family="Times Roman,serif" font-size="14.00">117.85 ms,9</text>
</g>
<!-- 218.248.255.109 -->
<g id="node72" class="node"><title>218.248.255.109</title>
<ellipse fill="none" stroke="black" cx="309" cy="-111" rx="97.0803" ry="18.3848"/>
<text text-anchor="middle" x="309" y="-107.4" font-family="Times Roman,serif" font-size="14.00">218.248.255.109</text>
</g>
<!-- 218.100.48.15&#45;&gt;218.248.255.109 -->
<g id="edge78" class="edge"><title>218.100.48.15&#45;&gt;218.248.255.109</title>
<path fill="none" stroke="green" d="M455.29,-186.465C441.235,-180.272 425.3,-173.03 411,-166 390.364,-155.855 367.822,-143.805 349.19,-133.574"/>
<polygon fill="green" stroke="green" points="350.83,-130.481 340.383,-128.714 347.447,-136.61 350.83,-130.481"/>
<text text-anchor="middle" x="455" y="-153.4" font-family="Times Roman,serif" font-size="14.00">109.32 ms,9</text>
</g>
<!-- 218.248.255.57 -->
<g id="node74" class="node"><title>218.248.255.57</title>
<ellipse fill="none" stroke="black" cx="515" cy="-111" rx="91.2168" ry="18.3848"/>
<text text-anchor="middle" x="515" y="-107.4" font-family="Times Roman,serif" font-size="14.00">218.248.255.57</text>
</g>
<!-- 218.100.48.15&#45;&gt;218.248.255.57 -->
<g id="edge80" class="edge"><title>218.100.48.15&#45;&gt;218.248.255.57</title>
<path fill="none" stroke="green" d="M498.25,-184.382C501.181,-171.538 505.135,-154.216 508.466,-139.627"/>
<polygon fill="green" stroke="green" points="511.943,-140.118 510.757,-129.59 505.119,-138.56 511.943,-140.118"/>
<text text-anchor="middle" x="551" y="-153.4" font-family="Times Roman,serif" font-size="14.00">109.25 ms,9</text>
</g>
<!-- 218.248.255.101 -->
<g id="node76" class="node"><title>218.248.255.101</title>
<ellipse fill="none" stroke="black" cx="721" cy="-111" rx="97.0803" ry="18.3848"/>
<text text-anchor="middle" x="721" y="-107.4" font-family="Times Roman,serif" font-size="14.00">218.248.255.101</text>
</g>
<!-- 218.100.48.15&#45;&gt;218.248.255.101 -->
<g id="edge82" class="edge"><title>218.100.48.15&#45;&gt;218.248.255.101</title>
<path fill="none" stroke="green" d="M540.836,-187.447C559.113,-181.13 580.162,-173.549 599,-166 624.683,-155.707 652.873,-143.088 675.679,-132.535"/>
<polygon fill="green" stroke="green" points="677.188,-135.693 684.779,-128.302 674.235,-129.346 677.188,-135.693"/>
<text text-anchor="middle" x="683" y="-153.4" font-family="Times Roman,serif" font-size="14.00">112.85 ms,9</text>
</g>
<!-- 218.248.236.229 -->
<g id="node78" class="node"><title>218.248.236.229</title>
<ellipse fill="none" stroke="black" cx="1288" cy="-295" rx="97.0803" ry="18.3848"/>
<text text-anchor="middle" x="1288" y="-291.4" font-family="Times Roman,serif" font-size="14.00">218.248.236.229</text>
</g>
<!-- 59.163.206.178&#45;&gt;218.248.236.229 -->
<g id="edge84" class="edge"><title>59.163.206.178&#45;&gt;218.248.236.229</title>
<path fill="none" stroke="blue" d="M1261.68,-368.382C1266.33,-355.414 1272.62,-337.879 1277.88,-323.203"/>
<polygon fill="blue" stroke="blue" points="1281.25,-324.184 1281.33,-313.59 1274.66,-321.821 1281.25,-324.184"/>
<text text-anchor="middle" x="1318" y="-337.4" font-family="Times Roman,serif" font-size="14.00">157.11 ms,9</text>
</g>
<!-- 218.248.235.181&#45;&gt;218.248.6.135 -->
<g id="edge94" class="edge"><title>218.248.235.181&#45;&gt;218.248.6.135</title>
<path fill="none" stroke="green" d="M151.366,-95.5619C198.082,-82.9123 267.444,-65.589 329,-56 463.306,-35.0783 620.502,-25.8324 718.43,-21.8548"/>
<polygon fill="green" stroke="green" points="718.747,-25.3451 728.601,-21.452 718.47,-18.3506 718.747,-25.3451"/>
<text text-anchor="middle" x="377.5" y="-61.4" font-family="Times Roman,serif" font-size="14.00">167.84 ms,12</text>
</g>
<!-- 218.248.255.109&#45;&gt;218.248.6.135 -->
<g id="edge96" class="edge"><title>218.248.255.109&#45;&gt;218.248.6.135</title>
<path fill="none" stroke="green" d="M356.613,-94.7544C394.504,-82.4098 449.102,-65.915 498,-56 572.634,-40.8666 658.563,-31.2858 721.8,-25.6749"/>
<polygon fill="green" stroke="green" points="722.486,-29.1285 732.145,-24.7745 721.879,-22.1549 722.486,-29.1285"/>
<text text-anchor="middle" x="547.5" y="-61.4" font-family="Times Roman,serif" font-size="14.00">149.81 ms,12</text>
</g>
<!-- 218.248.255.57&#45;&gt;218.248.6.135 -->
<g id="edge98" class="edge"><title>218.248.255.57&#45;&gt;218.248.6.135</title>
<path fill="none" stroke="green" d="M551.35,-93.981C577.736,-82.1203 614.528,-66.5876 648,-56 676.919,-46.8525 709.371,-39.0619 737.794,-33.023"/>
<polygon fill="green" stroke="green" points="738.594,-36.4315 747.667,-30.9607 737.163,-29.5794 738.594,-36.4315"/>
<text text-anchor="middle" x="696.5" y="-61.4" font-family="Times Roman,serif" font-size="14.00">148.69 ms,12</text>
</g>
<!-- 218.248.255.101&#45;&gt;218.248.6.135 -->
<g id="edge100" class="edge"><title>218.248.255.101&#45;&gt;218.248.6.135</title>
<path fill="none" stroke="green" d="M734.052,-92.495C742.317,-81.3635 753.571,-67.2245 765,-56 769.532,-51.5488 774.596,-47.1392 779.69,-42.9991"/>
<polygon fill="green" stroke="green" points="781.945,-45.6786 787.645,-36.7479 777.62,-40.1746 781.945,-45.6786"/>
<text text-anchor="middle" x="813.5" y="-61.4" font-family="Times Roman,serif" font-size="14.00">153.10 ms,12</text>
</g>
<!-- 172.24.16.162 -->
<g id="node80" class="node"><title>172.24.16.162</title>
<ellipse fill="none" stroke="black" cx="1321" cy="-203" rx="84.8528" ry="18.3848"/>
<text text-anchor="middle" x="1321" y="-199.4" font-family="Times Roman,serif" font-size="14.00">172.24.16.162</text>
</g>
<!-- 218.248.236.229&#45;&gt;172.24.16.162 -->
<g id="edge86" class="edge"><title>218.248.236.229&#45;&gt;172.24.16.162</title>
<path fill="none" stroke="blue" d="M1294.68,-276.382C1299.33,-263.414 1305.62,-245.879 1310.88,-231.203"/>
<polygon fill="blue" stroke="blue" points="1314.25,-232.184 1314.33,-221.59 1307.66,-229.821 1314.25,-232.184"/>
<text text-anchor="middle" x="1355.5" y="-245.4" font-family="Times Roman,serif" font-size="14.00">168.38 ms,10</text>
</g>
<!-- 172.24.16.161 -->
<g id="node82" class="node"><title>172.24.16.161</title>
<ellipse fill="none" stroke="black" cx="1321" cy="-111" rx="84.8528" ry="18.3848"/>
<text text-anchor="middle" x="1321" y="-107.4" font-family="Times Roman,serif" font-size="14.00">172.24.16.161</text>
</g>
<!-- 172.24.16.162&#45;&gt;172.24.16.161 -->
<g id="edge88" class="edge"><title>172.24.16.162&#45;&gt;172.24.16.161</title>
<path fill="none" stroke="blue" d="M1321,-184.382C1321,-171.538 1321,-154.216 1321,-139.627"/>
<polygon fill="blue" stroke="blue" points="1324.5,-139.59 1321,-129.59 1317.5,-139.59 1324.5,-139.59"/>
<text text-anchor="middle" x="1369.5" y="-153.4" font-family="Times Roman,serif" font-size="14.00">179.12 ms,11</text>
</g>
<!-- 172.24.16.161&#45;&gt;218.248.6.135 -->
<g id="edge102" class="edge"><title>172.24.16.161&#45;&gt;218.248.6.135</title>
<path fill="none" stroke="blue" d="M1275.95,-95.1926C1238.83,-82.7575 1184.59,-65.9258 1136,-56 1058.84,-40.2363 969.83,-30.6646 904.816,-25.2181"/>
<polygon fill="blue" stroke="blue" points="904.846,-21.7089 894.593,-24.3791 904.273,-28.6854 904.846,-21.7089"/>
<text text-anchor="middle" x="1255.5" y="-61.4" font-family="Times Roman,serif" font-size="14.00">192.59 ms,12</text>
</g>
</g>
</svg>
