<?xml version="1.0" encoding="UTF-8" standalone="no"?>
<!DOCTYPE svg PUBLIC "-//W3C//DTD SVG 1.1//EN"
 "http://www.w3.org/Graphics/SVG/1.1/DTD/svg11.dtd">
<!-- Generated by graphviz version 2.26.3 (20100126.1600)
 -->
<!-- Title: G Pages: 1 -->
<svg width="986pt" height="1262pt"
 viewBox="0.00 0.00 986.00 1262.00" xmlns="http://www.w3.org/2000/svg" xmlns:xlink="http://www.w3.org/1999/xlink">
<g id="graph1" class="graph" transform="scale(1 1) rotate(0) translate(4 1258)">
<title>G</title>
<polygon fill="white" stroke="white" points="-4,5 -4,-1258 983,-1258 983,5 -4,5"/>
<!-- delhi -->
<g id="node1" class="node"><title>delhi</title>
<ellipse fill="none" stroke="black" cx="225" cy="-1235" rx="34.8574" ry="18.3848"/>
<text text-anchor="middle" x="225" y="-1231.4" font-family="Times Roman,serif" font-size="14.00">delhi</text>
</g>
<!-- 10.155.72.61 -->
<g id="node3" class="node"><title>10.155.72.61</title>
<ellipse fill="none" stroke="black" cx="225" cy="-1143" rx="77.9889" ry="18.3848"/>
<text text-anchor="middle" x="225" y="-1139.4" font-family="Times Roman,serif" font-size="14.00">10.155.72.61</text>
</g>
<!-- delhi&#45;&gt;10.155.72.61 -->
<g id="edge2" class="edge"><title>delhi&#45;&gt;10.155.72.61</title>
<path fill="none" stroke="green" d="M225,-1216.38C225,-1203.54 225,-1186.22 225,-1171.63"/>
<polygon fill="green" stroke="green" points="228.5,-1171.59 225,-1161.59 221.5,-1171.59 228.5,-1171.59"/>
<text text-anchor="middle" x="264.5" y="-1185.4" font-family="Times Roman,serif" font-size="14.00">51.69 ms,1</text>
</g>
<!-- 10.155.87.177 -->
<g id="node10" class="node"><title>10.155.87.177</title>
<ellipse fill="none" stroke="black" cx="132" cy="-1051" rx="84.8528" ry="18.3848"/>
<text text-anchor="middle" x="132" y="-1047.4" font-family="Times Roman,serif" font-size="14.00">10.155.87.177</text>
</g>
<!-- 10.155.72.61&#45;&gt;10.155.87.177 -->
<g id="edge8" class="edge"><title>10.155.72.61&#45;&gt;10.155.87.177</title>
<path fill="none" stroke="green" d="M206.626,-1124.82C192.615,-1110.96 173.146,-1091.7 157.607,-1076.33"/>
<polygon fill="green" stroke="green" points="159.906,-1073.68 150.336,-1069.14 154.983,-1078.66 159.906,-1073.68"/>
<text text-anchor="middle" x="226.5" y="-1093.4" font-family="Times Roman,serif" font-size="14.00">68.07 ms,2</text>
</g>
<!-- 10.155.87.181 -->
<g id="node12" class="node"><title>10.155.87.181</title>
<ellipse fill="none" stroke="black" cx="320" cy="-1051" rx="84.8528" ry="18.3848"/>
<text text-anchor="middle" x="320" y="-1047.4" font-family="Times Roman,serif" font-size="14.00">10.155.87.181</text>
</g>
<!-- 10.155.72.61&#45;&gt;10.155.87.181 -->
<g id="edge10" class="edge"><title>10.155.72.61&#45;&gt;10.155.87.181</title>
<path fill="none" stroke="green" d="M247.98,-1125.18C255.216,-1119.28 263.112,-1112.55 270,-1106 279.568,-1096.9 289.477,-1086.28 297.925,-1076.82"/>
<polygon fill="green" stroke="green" points="300.654,-1079.02 304.638,-1069.2 295.401,-1074.39 300.654,-1079.02"/>
<text text-anchor="middle" x="326.5" y="-1093.4" font-family="Times Roman,serif" font-size="14.00">50.73 ms,2</text>
</g>
<!-- AP -->
<g id="node4" class="node"><title>AP</title>
<ellipse fill="none" stroke="black" cx="787" cy="-387" rx="27" ry="18.3848"/>
<text text-anchor="middle" x="787" y="-383.4" font-family="Times Roman,serif" font-size="14.00">AP</text>
</g>
<!-- 10.152.170.162 -->
<g id="node6" class="node"><title>10.152.170.162</title>
<ellipse fill="none" stroke="black" cx="887" cy="-295" rx="91.2168" ry="18.3848"/>
<text text-anchor="middle" x="887" y="-291.4" font-family="Times Roman,serif" font-size="14.00">10.152.170.162</text>
</g>
<!-- AP&#45;&gt;10.152.170.162 -->
<g id="edge4" class="edge"><title>AP&#45;&gt;10.152.170.162</title>
<path fill="none" stroke="red" d="M803.513,-371.808C818.755,-357.786 841.679,-336.695 859.652,-320.16"/>
<polygon fill="red" stroke="red" points="862.025,-322.732 867.015,-313.386 857.286,-317.581 862.025,-322.732"/>
<text text-anchor="middle" x="884.5" y="-337.4" font-family="Times Roman,serif" font-size="14.00">90.30 ms,2</text>
</g>
<!-- 10.152.170.170 -->
<g id="node8" class="node"><title>10.152.170.170</title>
<ellipse fill="none" stroke="black" cx="687" cy="-295" rx="91.2168" ry="18.3848"/>
<text text-anchor="middle" x="687" y="-291.4" font-family="Times Roman,serif" font-size="14.00">10.152.170.170</text>
</g>
<!-- AP&#45;&gt;10.152.170.170 -->
<g id="edge6" class="edge"><title>AP&#45;&gt;10.152.170.170</title>
<path fill="none" stroke="red" d="M767.355,-374.224C757.549,-367.486 745.735,-358.806 736,-350 726.294,-341.22 716.517,-330.67 708.277,-321.168"/>
<polygon fill="red" stroke="red" points="710.897,-318.846 701.752,-313.495 705.564,-323.381 710.897,-318.846"/>
<text text-anchor="middle" x="780" y="-337.4" font-family="Times Roman,serif" font-size="14.00">149.92 ms,2</text>
</g>
<!-- 10.152.170.166 -->
<g id="node21" class="node"><title>10.152.170.166</title>
<ellipse fill="none" stroke="black" cx="887" cy="-203" rx="91.2168" ry="18.3848"/>
<text text-anchor="middle" x="887" y="-199.4" font-family="Times Roman,serif" font-size="14.00">10.152.170.166</text>
</g>
<!-- 10.152.170.162&#45;&gt;10.152.170.166 -->
<g id="edge18" class="edge"><title>10.152.170.162&#45;&gt;10.152.170.166</title>
<path fill="none" stroke="red" d="M887,-276.382C887,-263.538 887,-246.216 887,-231.627"/>
<polygon fill="red" stroke="red" points="890.5,-231.59 887,-221.59 883.5,-231.59 890.5,-231.59"/>
<text text-anchor="middle" x="931" y="-245.4" font-family="Times Roman,serif" font-size="14.00">105.36 ms,3</text>
</g>
<!-- 10.152.170.174 -->
<g id="node19" class="node"><title>10.152.170.174</title>
<ellipse fill="none" stroke="black" cx="687" cy="-203" rx="91.2168" ry="18.3848"/>
<text text-anchor="middle" x="687" y="-199.4" font-family="Times Roman,serif" font-size="14.00">10.152.170.174</text>
</g>
<!-- 10.152.170.170&#45;&gt;10.152.170.174 -->
<g id="edge16" class="edge"><title>10.152.170.170&#45;&gt;10.152.170.174</title>
<path fill="none" stroke="red" d="M687,-276.382C687,-263.538 687,-246.216 687,-231.627"/>
<polygon fill="red" stroke="red" points="690.5,-231.59 687,-221.59 683.5,-231.59 690.5,-231.59"/>
<text text-anchor="middle" x="731" y="-245.4" font-family="Times Roman,serif" font-size="14.00">149.77 ms,3</text>
</g>
<!-- 10.155.68.4 -->
<g id="node23" class="node"><title>10.155.68.4</title>
<ellipse fill="none" stroke="black" cx="236" cy="-959" rx="72.1249" ry="18.3848"/>
<text text-anchor="middle" x="236" y="-955.4" font-family="Times Roman,serif" font-size="14.00">10.155.68.4</text>
</g>
<!-- 10.155.87.177&#45;&gt;10.155.68.4 -->
<g id="edge22" class="edge"><title>10.155.87.177&#45;&gt;10.155.68.4</title>
<path fill="none" stroke="green" d="M148.988,-1032.77C159.566,-1021.74 173.655,-1007.61 187,-996 192.187,-991.487 197.871,-986.899 203.471,-982.561"/>
<polygon fill="green" stroke="green" points="205.707,-985.258 211.551,-976.421 201.471,-979.685 205.707,-985.258"/>
<text text-anchor="middle" x="227.5" y="-1001.4" font-family="Times Roman,serif" font-size="14.00">78.02 ms,3</text>
</g>
<!-- 10.155.87.181&#45;&gt;10.155.68.4 -->
<g id="edge20" class="edge"><title>10.155.87.181&#45;&gt;10.155.68.4</title>
<path fill="none" stroke="green" d="M303.404,-1032.82C290.864,-1019.09 273.483,-1000.05 259.513,-984.752"/>
<polygon fill="green" stroke="green" points="261.889,-982.163 252.561,-977.138 256.719,-986.883 261.889,-982.163"/>
<text text-anchor="middle" x="324.5" y="-1001.4" font-family="Times Roman,serif" font-size="14.00">56.45 ms,3</text>
</g>
<!-- TN -->
<g id="node13" class="node"><title>TN</title>
<ellipse fill="none" stroke="black" cx="607" cy="-959" rx="27" ry="18.3848"/>
<text text-anchor="middle" x="607" y="-955.4" font-family="Times Roman,serif" font-size="14.00">TN</text>
</g>
<!-- 10.152.160.170 -->
<g id="node15" class="node"><title>10.152.160.170</title>
<ellipse fill="none" stroke="black" cx="730" cy="-867" rx="91.2168" ry="18.3848"/>
<text text-anchor="middle" x="730" y="-863.4" font-family="Times Roman,serif" font-size="14.00">10.152.160.170</text>
</g>
<!-- TN&#45;&gt;10.152.160.170 -->
<g id="edge12" class="edge"><title>TN&#45;&gt;10.152.160.170</title>
<path fill="none" stroke="blue" d="M628.1,-947.144C639.858,-940.255 654.587,-931.149 667,-922 679.415,-912.85 692.373,-901.825 703.287,-892.055"/>
<polygon fill="blue" stroke="blue" points="705.78,-894.519 710.835,-885.208 701.077,-889.334 705.78,-894.519"/>
<text text-anchor="middle" x="732" y="-909.4" font-family="Times Roman,serif" font-size="14.00">119.03 ms,2</text>
</g>
<!-- 10.152.160.162 -->
<g id="node17" class="node"><title>10.152.160.162</title>
<ellipse fill="none" stroke="black" cx="530" cy="-867" rx="91.2168" ry="18.3848"/>
<text text-anchor="middle" x="530" y="-863.4" font-family="Times Roman,serif" font-size="14.00">10.152.160.162</text>
</g>
<!-- TN&#45;&gt;10.152.160.162 -->
<g id="edge14" class="edge"><title>TN&#45;&gt;10.152.160.162</title>
<path fill="none" stroke="blue" d="M593.234,-942.552C581.815,-928.908 565.361,-909.249 552.1,-893.405"/>
<polygon fill="blue" stroke="blue" points="554.602,-890.941 545.5,-885.519 549.234,-895.434 554.602,-890.941"/>
<text text-anchor="middle" x="619" y="-909.4" font-family="Times Roman,serif" font-size="14.00">121.09 ms,2</text>
</g>
<!-- 10.152.161.174 -->
<g id="node28" class="node"><title>10.152.161.174</title>
<ellipse fill="none" stroke="black" cx="730" cy="-755" rx="91.2168" ry="18.3848"/>
<text text-anchor="middle" x="730" y="-751.4" font-family="Times Roman,serif" font-size="14.00">10.152.161.174</text>
</g>
<!-- 10.152.160.170&#45;&gt;10.152.161.174 -->
<g id="edge26" class="edge"><title>10.152.160.170&#45;&gt;10.152.161.174</title>
<path fill="none" stroke="blue" d="M730,-848.254C730,-830.729 730,-804.296 730,-784.041"/>
<polygon fill="blue" stroke="blue" points="733.5,-783.807 730,-773.807 726.5,-783.807 733.5,-783.807"/>
<text text-anchor="middle" x="774" y="-807.4" font-family="Times Roman,serif" font-size="14.00">125.62 ms,3</text>
</g>
<!-- 10.152.160.166 -->
<g id="node26" class="node"><title>10.152.160.166</title>
<ellipse fill="none" stroke="black" cx="530" cy="-755" rx="91.2168" ry="18.3848"/>
<text text-anchor="middle" x="530" y="-751.4" font-family="Times Roman,serif" font-size="14.00">10.152.160.166</text>
</g>
<!-- 10.152.160.162&#45;&gt;10.152.160.166 -->
<g id="edge24" class="edge"><title>10.152.160.162&#45;&gt;10.152.160.166</title>
<path fill="none" stroke="blue" d="M530,-848.254C530,-830.729 530,-804.296 530,-784.041"/>
<polygon fill="blue" stroke="blue" points="533.5,-783.807 530,-773.807 526.5,-783.807 533.5,-783.807"/>
<text text-anchor="middle" x="574" y="-807.4" font-family="Times Roman,serif" font-size="14.00">128.58 ms,3</text>
</g>
<!-- 10.117.17.253 -->
<g id="node68" class="node"><title>10.117.17.253</title>
<ellipse fill="none" stroke="black" cx="507" cy="-111" rx="84.8528" ry="18.3848"/>
<text text-anchor="middle" x="507" y="-107.4" font-family="Times Roman,serif" font-size="14.00">10.117.17.253</text>
</g>
<!-- 10.152.170.174&#45;&gt;10.117.17.253 -->
<g id="edge74" class="edge"><title>10.152.170.174&#45;&gt;10.117.17.253</title>
<path fill="none" stroke="red" d="M678.247,-184.575C671.579,-172.456 661.284,-157.192 648,-148 631.009,-136.243 610.516,-128.222 590.481,-122.75"/>
<polygon fill="red" stroke="red" points="591.254,-119.335 580.7,-120.263 589.529,-126.119 591.254,-119.335"/>
<text text-anchor="middle" x="714.5" y="-153.4" font-family="Times Roman,serif" font-size="14.00">153.79 ms,10</text>
</g>
<!-- 10.152.170.166&#45;&gt;10.117.17.253 -->
<g id="edge76" class="edge"><title>10.152.170.166&#45;&gt;10.117.17.253</title>
<path fill="none" stroke="red" d="M855.38,-185.447C831.731,-173.087 798.225,-157.167 767,-148 712.259,-131.929 648.914,-122.729 598.455,-117.522"/>
<polygon fill="red" stroke="red" points="598.514,-114.011 588.216,-116.502 597.82,-120.976 598.514,-114.011"/>
<text text-anchor="middle" x="862.5" y="-153.4" font-family="Times Roman,serif" font-size="14.00">189.84 ms,10</text>
</g>
<!-- 10.155.68.76 -->
<g id="node30" class="node"><title>10.155.68.76</title>
<ellipse fill="none" stroke="black" cx="236" cy="-867" rx="77.9889" ry="18.3848"/>
<text text-anchor="middle" x="236" y="-863.4" font-family="Times Roman,serif" font-size="14.00">10.155.68.76</text>
</g>
<!-- 10.155.68.4&#45;&gt;10.155.68.76 -->
<g id="edge28" class="edge"><title>10.155.68.4&#45;&gt;10.155.68.76</title>
<path fill="none" stroke="green" d="M236,-940.382C236,-927.538 236,-910.216 236,-895.627"/>
<polygon fill="green" stroke="green" points="239.5,-895.59 236,-885.59 232.5,-895.59 239.5,-895.59"/>
<text text-anchor="middle" x="275.5" y="-909.4" font-family="Times Roman,serif" font-size="14.00">78.70 ms,4</text>
</g>
<!-- 10.155.68.155 -->
<g id="node34" class="node"><title>10.155.68.155</title>
<ellipse fill="none" stroke="black" cx="342" cy="-811" rx="84.8528" ry="18.3848"/>
<text text-anchor="middle" x="342" y="-807.4" font-family="Times Roman,serif" font-size="14.00">10.155.68.155</text>
</g>
<!-- 10.155.68.4&#45;&gt;10.155.68.155 -->
<g id="edge32" class="edge"><title>10.155.68.4&#45;&gt;10.155.68.155</title>
<path fill="none" stroke="green" d="M286.368,-945.51C298.614,-940.033 310.59,-932.445 319,-922 337.707,-898.766 342.325,-864.133 342.98,-839.745"/>
<polygon fill="green" stroke="green" points="346.48,-839.682 343.043,-829.66 339.48,-839.638 346.48,-839.682"/>
<text text-anchor="middle" x="368.5" y="-909.4" font-family="Times Roman,serif" font-size="14.00">56.44 ms,5</text>
</g>
<!-- 223.224.40.67 -->
<g id="node36" class="node"><title>223.224.40.67</title>
<ellipse fill="none" stroke="black" cx="173" cy="-755" rx="84.8528" ry="18.3848"/>
<text text-anchor="middle" x="173" y="-751.4" font-family="Times Roman,serif" font-size="14.00">223.224.40.67</text>
</g>
<!-- 10.155.68.4&#45;&gt;223.224.40.67 -->
<g id="edge36" class="edge"><title>10.155.68.4&#45;&gt;223.224.40.67</title>
<path fill="none" stroke="green" d="M174.542,-949.135C137.459,-939.674 93.0577,-921.329 70,-886 43.9063,-846.02 94.2515,-803.15 133.332,-777.728"/>
<polygon fill="green" stroke="green" points="135.385,-780.57 141.967,-772.268 131.645,-774.654 135.385,-780.57"/>
<text text-anchor="middle" x="109.5" y="-863.4" font-family="Times Roman,serif" font-size="14.00">61.20 ms,5</text>
</g>
<!-- 125.17.12.121 -->
<g id="node32" class="node"><title>125.17.12.121</title>
<ellipse fill="none" stroke="black" cx="530" cy="-663" rx="84.8528" ry="18.3848"/>
<text text-anchor="middle" x="530" y="-659.4" font-family="Times Roman,serif" font-size="14.00">125.17.12.121</text>
</g>
<!-- 10.152.160.166&#45;&gt;125.17.12.121 -->
<g id="edge30" class="edge"><title>10.152.160.166&#45;&gt;125.17.12.121</title>
<path fill="none" stroke="blue" d="M530,-736.382C530,-723.538 530,-706.216 530,-691.627"/>
<polygon fill="blue" stroke="blue" points="533.5,-691.59 530,-681.59 526.5,-691.59 533.5,-691.59"/>
<text text-anchor="middle" x="574" y="-705.4" font-family="Times Roman,serif" font-size="14.00">119.65 ms,4</text>
</g>
<!-- 10.155.68.76&#45;&gt;223.224.40.67 -->
<g id="edge34" class="edge"><title>10.155.68.76&#45;&gt;223.224.40.67</title>
<path fill="none" stroke="green" d="M192.2,-851.563C182.971,-846.201 174.403,-839.155 169,-830 160.895,-816.265 161.447,-798.533 164.235,-783.76"/>
<polygon fill="green" stroke="green" points="167.736,-784.156 166.569,-773.625 160.914,-782.585 167.736,-784.156"/>
<text text-anchor="middle" x="208.5" y="-807.4" font-family="Times Roman,serif" font-size="14.00">63.24 ms,5</text>
</g>
<!-- 182.79.247.54 -->
<g id="node39" class="node"><title>182.79.247.54</title>
<ellipse fill="none" stroke="black" cx="478" cy="-571" rx="84.8528" ry="18.3848"/>
<text text-anchor="middle" x="478" y="-567.4" font-family="Times Roman,serif" font-size="14.00">182.79.247.54</text>
</g>
<!-- 125.17.12.121&#45;&gt;182.79.247.54 -->
<g id="edge38" class="edge"><title>125.17.12.121&#45;&gt;182.79.247.54</title>
<path fill="none" stroke="blue" d="M519.477,-644.382C512.006,-631.164 501.854,-613.203 493.464,-598.359"/>
<polygon fill="blue" stroke="blue" points="496.475,-596.573 488.507,-589.59 490.381,-600.018 496.475,-596.573"/>
<text text-anchor="middle" x="552" y="-613.4" font-family="Times Roman,serif" font-size="14.00">139.11 ms,5</text>
</g>
<!-- 182.79.255.50 -->
<g id="node41" class="node"><title>182.79.255.50</title>
<ellipse fill="none" stroke="black" cx="666" cy="-571" rx="84.8528" ry="18.3848"/>
<text text-anchor="middle" x="666" y="-567.4" font-family="Times Roman,serif" font-size="14.00">182.79.255.50</text>
</g>
<!-- 125.17.12.121&#45;&gt;182.79.255.50 -->
<g id="edge40" class="edge"><title>125.17.12.121&#45;&gt;182.79.255.50</title>
<path fill="none" stroke="blue" d="M565.364,-646.131C576.716,-640.24 589.153,-633.271 600,-626 613.389,-617.026 627.234,-605.828 638.765,-595.883"/>
<polygon fill="blue" stroke="blue" points="641.131,-598.464 646.345,-589.24 636.517,-593.199 641.131,-598.464"/>
<text text-anchor="middle" x="666" y="-613.4" font-family="Times Roman,serif" font-size="14.00">159.45 ms,5</text>
</g>
<!-- 125.16.67.33 -->
<g id="node43" class="node"><title>125.16.67.33</title>
<ellipse fill="none" stroke="black" cx="258" cy="-663" rx="77.9889" ry="18.3848"/>
<text text-anchor="middle" x="258" y="-659.4" font-family="Times Roman,serif" font-size="14.00">125.16.67.33</text>
</g>
<!-- 10.155.68.155&#45;&gt;125.16.67.33 -->
<g id="edge42" class="edge"><title>10.155.68.155&#45;&gt;125.16.67.33</title>
<path fill="none" stroke="green" d="M338.909,-792.255C334.355,-768.931 324.117,-728.683 304,-700 300.837,-695.49 296.974,-691.243 292.845,-687.346"/>
<polygon fill="green" stroke="green" points="295.066,-684.64 285.219,-680.732 290.48,-689.928 295.066,-684.64"/>
<text text-anchor="middle" x="373.5" y="-751.4" font-family="Times Roman,serif" font-size="14.00">55.11 ms,6</text>
</g>
<!-- 223.224.40.67&#45;&gt;125.16.67.33 -->
<g id="edge44" class="edge"><title>223.224.40.67&#45;&gt;125.16.67.33</title>
<path fill="none" stroke="green" d="M189.793,-736.824C202.483,-723.089 220.07,-704.053 234.207,-688.752"/>
<polygon fill="green" stroke="green" points="237.026,-690.859 241.242,-681.138 231.885,-686.108 237.026,-690.859"/>
<text text-anchor="middle" x="262.5" y="-705.4" font-family="Times Roman,serif" font-size="14.00">68.79 ms,6</text>
</g>
<!-- 115.113.165.241 -->
<g id="node46" class="node"><title>115.113.165.241</title>
<ellipse fill="none" stroke="black" cx="326" cy="-479" rx="97.0803" ry="18.3848"/>
<text text-anchor="middle" x="326" y="-475.4" font-family="Times Roman,serif" font-size="14.00">115.113.165.241</text>
</g>
<!-- 182.79.247.54&#45;&gt;115.113.165.241 -->
<g id="edge48" class="edge"><title>182.79.247.54&#45;&gt;115.113.165.241</title>
<path fill="none" stroke="blue" d="M474.217,-552.499C470.846,-540.505 464.727,-525.415 454,-516 445.405,-508.456 424.355,-501.22 401.753,-495.18"/>
<polygon fill="blue" stroke="blue" points="402.561,-491.773 392.004,-492.667 400.814,-498.552 402.561,-491.773"/>
<text text-anchor="middle" x="510" y="-521.4" font-family="Times Roman,serif" font-size="14.00">149.71 ms,6</text>
</g>
<!-- 182.79.255.50&#45;&gt;115.113.165.241 -->
<g id="edge46" class="edge"><title>182.79.255.50&#45;&gt;115.113.165.241</title>
<path fill="none" stroke="blue" d="M637.727,-553.494C616.534,-541.156 586.412,-525.245 558,-516 515.451,-502.155 466.765,-493.381 425.015,-487.875"/>
<polygon fill="blue" stroke="blue" points="425.198,-484.37 414.836,-486.579 424.314,-491.314 425.198,-484.37"/>
<text text-anchor="middle" x="644" y="-521.4" font-family="Times Roman,serif" font-size="14.00">146.00 ms,6</text>
</g>
<!-- 182.79.247.106 -->
<g id="node49" class="node"><title>182.79.247.106</title>
<ellipse fill="none" stroke="black" cx="91" cy="-571" rx="91.2168" ry="18.3848"/>
<text text-anchor="middle" x="91" y="-567.4" font-family="Times Roman,serif" font-size="14.00">182.79.247.106</text>
</g>
<!-- 125.16.67.33&#45;&gt;182.79.247.106 -->
<g id="edge50" class="edge"><title>125.16.67.33&#45;&gt;182.79.247.106</title>
<path fill="none" stroke="green" d="M224.48,-646.214C212.294,-639.996 198.459,-632.802 186,-626 167.198,-615.734 146.591,-603.88 129.39,-593.811"/>
<polygon fill="green" stroke="green" points="131.128,-590.773 120.733,-588.726 127.583,-596.809 131.128,-590.773"/>
<text text-anchor="middle" x="225.5" y="-613.4" font-family="Times Roman,serif" font-size="14.00">87.03 ms,7</text>
</g>
<!-- 182.79.247.50 -->
<g id="node51" class="node"><title>182.79.247.50</title>
<ellipse fill="none" stroke="black" cx="285" cy="-571" rx="84.8528" ry="18.3848"/>
<text text-anchor="middle" x="285" y="-567.4" font-family="Times Roman,serif" font-size="14.00">182.79.247.50</text>
</g>
<!-- 125.16.67.33&#45;&gt;182.79.247.50 -->
<g id="edge52" class="edge"><title>125.16.67.33&#45;&gt;182.79.247.50</title>
<path fill="none" stroke="green" d="M263.464,-644.382C267.27,-631.414 272.416,-613.879 276.723,-599.203"/>
<polygon fill="green" stroke="green" points="280.087,-600.171 279.544,-589.59 273.37,-598.2 280.087,-600.171"/>
<text text-anchor="middle" x="312.5" y="-613.4" font-family="Times Roman,serif" font-size="14.00">76.18 ms,7</text>
</g>
<!-- 172.29.252.33 -->
<g id="node53" class="node"><title>172.29.252.33</title>
<ellipse fill="none" stroke="black" cx="145" cy="-387" rx="84.8528" ry="18.3848"/>
<text text-anchor="middle" x="145" y="-383.4" font-family="Times Roman,serif" font-size="14.00">172.29.252.33</text>
</g>
<!-- 115.113.165.241&#45;&gt;172.29.252.33 -->
<g id="edge54" class="edge"><title>115.113.165.241&#45;&gt;172.29.252.33</title>
<path fill="none" stroke="blue" d="M280.395,-462.443C265.375,-456.521 248.75,-449.455 234,-442 215.535,-432.668 195.882,-420.751 179.753,-410.398"/>
<polygon fill="blue" stroke="blue" points="181.479,-407.345 171.186,-404.833 177.666,-413.216 181.479,-407.345"/>
<text text-anchor="middle" x="278" y="-429.4" font-family="Times Roman,serif" font-size="14.00">165.22 ms,7</text>
</g>
<!-- 172.31.19.22 -->
<g id="node55" class="node"><title>172.31.19.22</title>
<ellipse fill="none" stroke="black" cx="326" cy="-387" rx="77.9889" ry="18.3848"/>
<text text-anchor="middle" x="326" y="-383.4" font-family="Times Roman,serif" font-size="14.00">172.31.19.22</text>
</g>
<!-- 115.113.165.241&#45;&gt;172.31.19.22 -->
<g id="edge56" class="edge"><title>115.113.165.241&#45;&gt;172.31.19.22</title>
<path fill="none" stroke="blue" d="M326,-460.382C326,-447.538 326,-430.216 326,-415.627"/>
<polygon fill="blue" stroke="blue" points="329.5,-415.59 326,-405.59 322.5,-415.59 329.5,-415.59"/>
<text text-anchor="middle" x="370" y="-429.4" font-family="Times Roman,serif" font-size="14.00">177.51 ms,7</text>
</g>
<!-- 14.140.113.30 -->
<g id="node61" class="node"><title>14.140.113.30</title>
<ellipse fill="none" stroke="black" cx="326" cy="-295" rx="84.8528" ry="18.3848"/>
<text text-anchor="middle" x="326" y="-291.4" font-family="Times Roman,serif" font-size="14.00">14.140.113.30</text>
</g>
<!-- 115.113.165.241&#45;&gt;14.140.113.30 -->
<g id="edge78" class="edge"><title>115.113.165.241&#45;&gt;14.140.113.30</title>
<path fill="none" stroke="green" d="M389.974,-464.827C401.033,-459.484 411.157,-452.128 418,-442 445.371,-401.491 445.371,-372.509 418,-332 412.492,-323.848 404.858,-317.492 396.323,-312.536"/>
<polygon fill="green" stroke="green" points="397.651,-309.284 387.152,-307.861 394.472,-315.521 397.651,-309.284"/>
<text text-anchor="middle" x="482" y="-383.4" font-family="Times Roman,serif" font-size="14.00">81.99 ms,10</text>
</g>
<!-- 182.79.247.106&#45;&gt;115.113.165.241 -->
<g id="edge60" class="edge"><title>182.79.247.106&#45;&gt;115.113.165.241</title>
<path fill="none" stroke="green" d="M64.1746,-553.117C50.8726,-542.085 39.6485,-527.832 50,-516 61.6673,-502.664 150.487,-492.468 224.267,-486.189"/>
<polygon fill="green" stroke="green" points="224.894,-489.649 234.568,-485.329 224.311,-482.674 224.894,-489.649"/>
<text text-anchor="middle" x="94" y="-521.4" font-family="Times Roman,serif" font-size="14.00">100.72 ms,8</text>
</g>
<!-- 182.79.247.106&#45;&gt;115.113.165.241 -->
<g id="edge62" class="edge"><title>182.79.247.106&#45;&gt;115.113.165.241</title>
<path fill="none" stroke="green" d="M114.339,-552.851C130.775,-540.856 153.736,-525.626 176,-516 197.553,-506.682 221.907,-499.41 244.626,-493.874"/>
<polygon fill="green" stroke="green" points="245.657,-497.227 254.589,-491.529 244.054,-490.413 245.657,-497.227"/>
<text text-anchor="middle" x="221" y="-521.4" font-family="Times Roman,serif" font-size="14.00">131.97 ms,8</text>
</g>
<!-- 182.79.247.50&#45;&gt;115.113.165.241 -->
<g id="edge58" class="edge"><title>182.79.247.50&#45;&gt;115.113.165.241</title>
<path fill="none" stroke="green" d="M274.442,-552.6C269.552,-541.506 266.007,-527.371 272,-516 274.616,-511.036 278.232,-506.61 282.364,-502.7"/>
<polygon fill="green" stroke="green" points="284.754,-505.267 290.257,-496.214 280.309,-499.859 284.754,-505.267"/>
<text text-anchor="middle" x="316" y="-521.4" font-family="Times Roman,serif" font-size="14.00">100.72 ms,8</text>
</g>
<!-- 182.79.247.50&#45;&gt;115.113.165.241 -->
<g id="edge64" class="edge"><title>182.79.247.50&#45;&gt;115.113.165.241</title>
<path fill="none" stroke="green" d="M335.068,-555.954C344.96,-550.625 354.097,-543.494 360,-534 365.868,-524.562 362.113,-514.198 355.3,-505.036"/>
<polygon fill="green" stroke="green" points="357.863,-502.649 348.69,-497.348 352.555,-507.213 357.863,-502.649"/>
<text text-anchor="middle" x="406" y="-521.4" font-family="Times Roman,serif" font-size="14.00">102.66 ms,8</text>
</g>
<!-- 172.29.252.33&#45;&gt;14.140.113.30 -->
<g id="edge68" class="edge"><title>172.29.252.33&#45;&gt;14.140.113.30</title>
<path fill="none" stroke="blue" d="M171.186,-369.167C188.562,-357.751 212.115,-343.061 234,-332 246.121,-325.874 259.509,-320.01 272.231,-314.828"/>
<polygon fill="blue" stroke="blue" points="273.81,-317.966 281.798,-311.005 271.213,-311.466 273.81,-317.966"/>
<text text-anchor="middle" x="278" y="-337.4" font-family="Times Roman,serif" font-size="14.00">176.36 ms,8</text>
</g>
<!-- 172.31.19.22&#45;&gt;14.140.113.30 -->
<g id="edge66" class="edge"><title>172.31.19.22&#45;&gt;14.140.113.30</title>
<path fill="none" stroke="blue" d="M326,-368.382C326,-355.538 326,-338.216 326,-323.627"/>
<polygon fill="blue" stroke="blue" points="329.5,-323.59 326,-313.59 322.5,-323.59 329.5,-323.59"/>
<text text-anchor="middle" x="370" y="-337.4" font-family="Times Roman,serif" font-size="14.00">176.36 ms,8</text>
</g>
<!-- 10.255.221.3 -->
<g id="node64" class="node"><title>10.255.221.3</title>
<ellipse fill="none" stroke="black" cx="326" cy="-203" rx="77.9889" ry="18.3848"/>
<text text-anchor="middle" x="326" y="-199.4" font-family="Times Roman,serif" font-size="14.00">10.255.221.3</text>
</g>
<!-- 14.140.113.30&#45;&gt;10.255.221.3 -->
<g id="edge70" class="edge"><title>14.140.113.30&#45;&gt;10.255.221.3</title>
<path fill="none" stroke="blue" d="M326,-276.382C326,-263.538 326,-246.216 326,-231.627"/>
<polygon fill="blue" stroke="blue" points="329.5,-231.59 326,-221.59 322.5,-231.59 329.5,-231.59"/>
<text text-anchor="middle" x="370" y="-245.4" font-family="Times Roman,serif" font-size="14.00">293.79 ms,9</text>
</g>
<!-- 10.255.222.3 -->
<g id="node66" class="node"><title>10.255.222.3</title>
<ellipse fill="none" stroke="black" cx="500" cy="-203" rx="77.9889" ry="18.3848"/>
<text text-anchor="middle" x="500" y="-199.4" font-family="Times Roman,serif" font-size="14.00">10.255.222.3</text>
</g>
<!-- 14.140.113.30&#45;&gt;10.255.222.3 -->
<g id="edge72" class="edge"><title>14.140.113.30&#45;&gt;10.255.222.3</title>
<path fill="none" stroke="blue" d="M370.834,-279.131C386.11,-273.161 403.087,-265.889 418,-258 435.226,-248.887 453.324,-237.021 468.122,-226.645"/>
<polygon fill="blue" stroke="blue" points="470.303,-229.388 476.422,-220.739 466.245,-223.685 470.303,-229.388"/>
<text text-anchor="middle" x="492" y="-245.4" font-family="Times Roman,serif" font-size="14.00">158.72 ms,9</text>
</g>
<!-- 180.149.52.20 -->
<g id="node75" class="node"><title>180.149.52.20</title>
<ellipse fill="none" stroke="black" cx="290" cy="-19" rx="84.8528" ry="18.3848"/>
<text text-anchor="middle" x="290" y="-15.4" font-family="Times Roman,serif" font-size="14.00">180.149.52.20</text>
</g>
<!-- 14.140.113.30&#45;&gt;180.149.52.20 -->
<g id="edge90" class="edge"><title>14.140.113.30&#45;&gt;180.149.52.20</title>
<path fill="none" stroke="green" d="M297.902,-277.291C278.956,-264.086 254.652,-244.497 239,-222 223.907,-200.305 223.511,-192.041 219,-166 211.119,-120.504 242.024,-73.3795 265.54,-45.1256"/>
<polygon fill="green" stroke="green" points="268.378,-47.1941 272.244,-37.3298 263.07,-42.6301 268.378,-47.1941"/>
<text text-anchor="middle" x="267.5" y="-153.4" font-family="Times Roman,serif" font-size="14.00">149.49 ms,15</text>
</g>
<!-- 10.255.221.3&#45;&gt;10.117.17.253 -->
<g id="edge80" class="edge"><title>10.255.221.3&#45;&gt;10.117.17.253</title>
<path fill="none" stroke="blue" d="M321.338,-184.357C319.573,-172.608 319.674,-157.852 328,-148 340.081,-133.705 379.033,-124.728 417.528,-119.203"/>
<polygon fill="blue" stroke="blue" points="418.381,-122.62 427.818,-117.803 417.437,-115.683 418.381,-122.62"/>
<text text-anchor="middle" x="376.5" y="-153.4" font-family="Times Roman,serif" font-size="14.00">162.83 ms,10</text>
</g>
<!-- 10.255.221.3&#45;&gt;10.117.17.253 -->
<g id="edge84" class="edge"><title>10.255.221.3&#45;&gt;10.117.17.253</title>
<path fill="none" stroke="blue" d="M375.911,-188.727C392.216,-182.94 409.98,-175.376 425,-166 434.868,-159.841 434.703,-154.991 444,-148 450.777,-142.905 458.31,-137.948 465.742,-133.404"/>
<polygon fill="blue" stroke="blue" points="467.561,-136.394 474.369,-128.277 463.985,-130.377 467.561,-136.394"/>
<text text-anchor="middle" x="492.5" y="-153.4" font-family="Times Roman,serif" font-size="14.00">160.19 ms,10</text>
</g>
<!-- 10.255.222.3&#45;&gt;10.117.17.253 -->
<g id="edge82" class="edge"><title>10.255.222.3&#45;&gt;10.117.17.253</title>
<path fill="none" stroke="blue" d="M528.73,-185.74C535.279,-180.306 541.371,-173.682 545,-166 549.831,-155.773 545.477,-145.362 538.231,-136.39"/>
<polygon fill="blue" stroke="blue" points="540.652,-133.853 531.278,-128.915 535.527,-138.621 540.652,-133.853"/>
<text text-anchor="middle" x="595.5" y="-153.4" font-family="Times Roman,serif" font-size="14.00">160.19 ms,10</text>
</g>
<!-- 10.117.17.253&#45;&gt;180.149.52.20 -->
<g id="edge86" class="edge"><title>10.117.17.253&#45;&gt;180.149.52.20</title>
<path fill="none" stroke="blue" d="M467.954,-94.446C431.732,-79.0893 377.695,-56.1793 338.675,-39.6362"/>
<polygon fill="blue" stroke="blue" points="339.671,-36.2571 329.098,-35.576 336.938,-42.7018 339.671,-36.2571"/>
<text text-anchor="middle" x="465.5" y="-61.4" font-family="Times Roman,serif" font-size="14.00">159.54 ms,13</text>
</g>
<!-- 180.149.52.20&#45;&gt;180.149.52.20 -->
<g id="edge88" class="edge"><title>180.149.52.20&#45;&gt;180.149.52.20</title>
<path fill="none" stroke="blue" d="M366.361,-27.296C381.884,-26.3923 393,-23.627 393,-19 393,-15.4575 386.484,-13.0062 376.463,-11.6462"/>
<polygon fill="blue" stroke="blue" points="376.643,-8.14789 366.361,-10.704 375.993,-15.1176 376.643,-8.14789"/>
<text text-anchor="middle" x="441.5" y="-15.4" font-family="Times Roman,serif" font-size="14.00">161.51 ms,14</text>
</g>
</g>
</svg>
