<?xml version="1.0" encoding="UTF-8" standalone="no"?>
<!DOCTYPE svg PUBLIC "-//W3C//DTD SVG 1.1//EN"
 "http://www.w3.org/Graphics/SVG/1.1/DTD/svg11.dtd">
<!-- Generated by graphviz version 2.26.3 (20100126.1600)
 -->
<!-- Title: G Pages: 1 -->
<svg width="1366pt" height="1171pt"
 viewBox="0.00 0.00 1366.00 1171.28" xmlns="http://www.w3.org/2000/svg" xmlns:xlink="http://www.w3.org/1999/xlink">
<g id="graph1" class="graph" transform="scale(1 1) rotate(0) translate(4 1167.28)">
<title>G</title>
<polygon fill="white" stroke="white" points="-4,5 -4,-1167.28 1363,-1167.28 1363,5 -4,5"/>
<!-- delhi -->
<g id="node1" class="node"><title>delhi</title>
<ellipse fill="none" stroke="black" cx="319" cy="-1144.28" rx="34.8574" ry="18.3848"/>
<text text-anchor="middle" x="319" y="-1140.68" font-family="Times Roman,serif" font-size="14.00">delhi</text>
</g>
<!-- 10.155.72.61 -->
<g id="node3" class="node"><title>10.155.72.61</title>
<ellipse fill="none" stroke="black" cx="319" cy="-1052.28" rx="77.9889" ry="18.3848"/>
<text text-anchor="middle" x="319" y="-1048.68" font-family="Times Roman,serif" font-size="14.00">10.155.72.61</text>
</g>
<!-- delhi&#45;&gt;10.155.72.61 -->
<g id="edge2" class="edge"><title>delhi&#45;&gt;10.155.72.61</title>
<path fill="none" stroke="green" d="M319,-1125.66C319,-1112.82 319,-1095.5 319,-1080.91"/>
<polygon fill="green" stroke="green" points="322.5,-1080.87 319,-1070.87 315.5,-1080.87 322.5,-1080.87"/>
<text text-anchor="middle" x="358.5" y="-1094.68" font-family="Times Roman,serif" font-size="14.00">73.83 ms,1</text>
</g>
<!-- 10.155.87.177 -->
<g id="node10" class="node"><title>10.155.87.177</title>
<ellipse fill="none" stroke="black" cx="226" cy="-960.282" rx="84.8528" ry="18.3848"/>
<text text-anchor="middle" x="226" y="-956.682" font-family="Times Roman,serif" font-size="14.00">10.155.87.177</text>
</g>
<!-- 10.155.72.61&#45;&gt;10.155.87.177 -->
<g id="edge8" class="edge"><title>10.155.72.61&#45;&gt;10.155.87.177</title>
<path fill="none" stroke="green" d="M300.626,-1034.11C286.615,-1020.24 267.146,-1000.99 251.607,-985.614"/>
<polygon fill="green" stroke="green" points="253.906,-982.965 244.336,-978.42 248.983,-987.941 253.906,-982.965"/>
<text text-anchor="middle" x="319.5" y="-1002.68" font-family="Times Roman,serif" font-size="14.00">68.76 ms,2</text>
</g>
<!-- 10.155.87.181 -->
<g id="node12" class="node"><title>10.155.87.181</title>
<ellipse fill="none" stroke="black" cx="414" cy="-960.282" rx="84.8528" ry="18.3848"/>
<text text-anchor="middle" x="414" y="-956.682" font-family="Times Roman,serif" font-size="14.00">10.155.87.181</text>
</g>
<!-- 10.155.72.61&#45;&gt;10.155.87.181 -->
<g id="edge10" class="edge"><title>10.155.72.61&#45;&gt;10.155.87.181</title>
<path fill="none" stroke="green" d="M341.399,-1034.36C348.47,-1028.46 356.207,-1021.75 363,-1015.28 372.576,-1006.16 382.581,-995.619 391.167,-986.221"/>
<polygon fill="green" stroke="green" points="393.899,-988.418 398.005,-978.651 388.704,-983.725 393.899,-988.418"/>
<text text-anchor="middle" x="424" y="-1002.68" font-family="Times Roman,serif" font-size="14.00">157.16 ms,2</text>
</g>
<!-- AP -->
<g id="node4" class="node"><title>AP</title>
<ellipse fill="none" stroke="black" cx="156" cy="-664.282" rx="27" ry="18.3848"/>
<text text-anchor="middle" x="156" y="-660.682" font-family="Times Roman,serif" font-size="14.00">AP</text>
</g>
<!-- 10.152.170.162 -->
<g id="node6" class="node"><title>10.152.170.162</title>
<ellipse fill="none" stroke="black" cx="291" cy="-572.282" rx="91.2168" ry="18.3848"/>
<text text-anchor="middle" x="291" y="-568.682" font-family="Times Roman,serif" font-size="14.00">10.152.170.162</text>
</g>
<!-- AP&#45;&gt;10.152.170.162 -->
<g id="edge4" class="edge"><title>AP&#45;&gt;10.152.170.162</title>
<path fill="none" stroke="red" d="M177.013,-652.495C189.185,-645.483 204.685,-636.233 218,-627.282 232.259,-617.696 247.516,-606.379 260.376,-596.511"/>
<polygon fill="red" stroke="red" points="262.678,-599.155 268.446,-590.268 258.394,-593.619 262.678,-599.155"/>
<text text-anchor="middle" x="286" y="-614.682" font-family="Times Roman,serif" font-size="14.00">116.72 ms,2</text>
</g>
<!-- 10.152.170.170 -->
<g id="node8" class="node"><title>10.152.170.170</title>
<ellipse fill="none" stroke="black" cx="91" cy="-572.282" rx="91.2168" ry="18.3848"/>
<text text-anchor="middle" x="91" y="-568.682" font-family="Times Roman,serif" font-size="14.00">10.152.170.170</text>
</g>
<!-- AP&#45;&gt;10.152.170.170 -->
<g id="edge6" class="edge"><title>AP&#45;&gt;10.152.170.170</title>
<path fill="none" stroke="red" d="M144.078,-647.408C134.492,-633.839 120.848,-614.528 109.793,-598.882"/>
<polygon fill="red" stroke="red" points="112.59,-596.774 103.961,-590.627 106.873,-600.813 112.59,-596.774"/>
<text text-anchor="middle" x="174" y="-614.682" font-family="Times Roman,serif" font-size="14.00">104.90 ms,2</text>
</g>
<!-- 10.152.170.166 -->
<g id="node21" class="node"><title>10.152.170.166</title>
<ellipse fill="none" stroke="black" cx="291" cy="-480.282" rx="91.2168" ry="18.3848"/>
<text text-anchor="middle" x="291" y="-476.682" font-family="Times Roman,serif" font-size="14.00">10.152.170.166</text>
</g>
<!-- 10.152.170.162&#45;&gt;10.152.170.166 -->
<g id="edge18" class="edge"><title>10.152.170.162&#45;&gt;10.152.170.166</title>
<path fill="none" stroke="red" d="M291,-553.664C291,-540.82 291,-523.498 291,-508.909"/>
<polygon fill="red" stroke="red" points="294.5,-508.872 291,-498.872 287.5,-508.872 294.5,-508.872"/>
<text text-anchor="middle" x="335" y="-522.682" font-family="Times Roman,serif" font-size="14.00">128.85 ms,3</text>
</g>
<!-- 10.152.170.174 -->
<g id="node19" class="node"><title>10.152.170.174</title>
<ellipse fill="none" stroke="black" cx="91" cy="-480.282" rx="91.2168" ry="18.3848"/>
<text text-anchor="middle" x="91" y="-476.682" font-family="Times Roman,serif" font-size="14.00">10.152.170.174</text>
</g>
<!-- 10.152.170.170&#45;&gt;10.152.170.174 -->
<g id="edge16" class="edge"><title>10.152.170.170&#45;&gt;10.152.170.174</title>
<path fill="none" stroke="red" d="M91,-553.664C91,-540.82 91,-523.498 91,-508.909"/>
<polygon fill="red" stroke="red" points="94.5001,-508.872 91,-498.872 87.5001,-508.872 94.5001,-508.872"/>
<text text-anchor="middle" x="135" y="-522.682" font-family="Times Roman,serif" font-size="14.00">112.58 ms,3</text>
</g>
<!-- 10.155.68.4 -->
<g id="node23" class="node"><title>10.155.68.4</title>
<ellipse fill="none" stroke="black" cx="330" cy="-868.282" rx="72.1249" ry="18.3848"/>
<text text-anchor="middle" x="330" y="-864.682" font-family="Times Roman,serif" font-size="14.00">10.155.68.4</text>
</g>
<!-- 10.155.87.177&#45;&gt;10.155.68.4 -->
<g id="edge22" class="edge"><title>10.155.87.177&#45;&gt;10.155.68.4</title>
<path fill="none" stroke="green" d="M242.988,-942.054C253.566,-931.024 267.655,-916.894 281,-905.282 286.187,-900.769 291.871,-896.181 297.471,-891.842"/>
<polygon fill="green" stroke="green" points="299.707,-894.54 305.551,-885.703 295.471,-888.967 299.707,-894.54"/>
<text text-anchor="middle" x="320.5" y="-910.682" font-family="Times Roman,serif" font-size="14.00">73.66 ms,3</text>
</g>
<!-- 10.155.87.181&#45;&gt;10.155.68.4 -->
<g id="edge20" class="edge"><title>10.155.87.181&#45;&gt;10.155.68.4</title>
<path fill="none" stroke="green" d="M397.404,-942.106C384.864,-928.371 367.483,-909.335 353.513,-894.034"/>
<polygon fill="green" stroke="green" points="355.889,-891.445 346.561,-886.42 350.719,-896.165 355.889,-891.445"/>
<text text-anchor="middle" x="423" y="-910.682" font-family="Times Roman,serif" font-size="14.00">180.02 ms,3</text>
</g>
<!-- TN -->
<g id="node13" class="node"><title>TN</title>
<ellipse fill="none" stroke="black" cx="820" cy="-868.282" rx="27" ry="18.3848"/>
<text text-anchor="middle" x="820" y="-864.682" font-family="Times Roman,serif" font-size="14.00">TN</text>
</g>
<!-- 10.152.160.170 -->
<g id="node15" class="node"><title>10.152.160.170</title>
<ellipse fill="none" stroke="black" cx="927" cy="-720.282" rx="91.2168" ry="18.3848"/>
<text text-anchor="middle" x="927" y="-716.682" font-family="Times Roman,serif" font-size="14.00">10.152.160.170</text>
</g>
<!-- TN&#45;&gt;10.152.160.170 -->
<g id="edge12" class="edge"><title>TN&#45;&gt;10.152.160.170</title>
<path fill="none" stroke="blue" d="M844.167,-859.653C858.063,-853.606 874.91,-844.267 886,-831.282 906.222,-807.604 916.871,-773.053 922.193,-748.805"/>
<polygon fill="blue" stroke="blue" points="925.668,-749.281 924.22,-738.785 918.807,-747.893 925.668,-749.281"/>
<text text-anchor="middle" x="941" y="-818.682" font-family="Times Roman,serif" font-size="14.00">116.57 ms,2</text>
</g>
<!-- 10.152.160.162 -->
<g id="node17" class="node"><title>10.152.160.162</title>
<ellipse fill="none" stroke="black" cx="757" cy="-776.282" rx="91.2168" ry="18.3848"/>
<text text-anchor="middle" x="757" y="-772.682" font-family="Times Roman,serif" font-size="14.00">10.152.160.162</text>
</g>
<!-- TN&#45;&gt;10.152.160.162 -->
<g id="edge14" class="edge"><title>TN&#45;&gt;10.152.160.162</title>
<path fill="none" stroke="blue" d="M808.445,-851.408C799.153,-837.839 785.929,-818.528 775.215,-802.882"/>
<polygon fill="blue" stroke="blue" points="778.1,-800.9 769.562,-794.627 772.324,-804.855 778.1,-800.9"/>
<text text-anchor="middle" x="838" y="-818.682" font-family="Times Roman,serif" font-size="14.00">118.78 ms,2</text>
</g>
<!-- 10.152.161.174 -->
<g id="node28" class="node"><title>10.152.161.174</title>
<ellipse fill="none" stroke="black" cx="943" cy="-572.282" rx="91.2168" ry="18.3848"/>
<text text-anchor="middle" x="943" y="-568.682" font-family="Times Roman,serif" font-size="14.00">10.152.161.174</text>
</g>
<!-- 10.152.160.170&#45;&gt;10.152.161.174 -->
<g id="edge26" class="edge"><title>10.152.160.170&#45;&gt;10.152.161.174</title>
<path fill="none" stroke="blue" d="M929.026,-701.538C931.767,-676.183 936.682,-630.721 939.892,-601.032"/>
<polygon fill="blue" stroke="blue" points="943.395,-601.192 940.99,-590.874 936.435,-600.44 943.395,-601.192"/>
<text text-anchor="middle" x="979" y="-660.682" font-family="Times Roman,serif" font-size="14.00">151.32 ms,3</text>
</g>
<!-- 10.152.160.166 -->
<g id="node26" class="node"><title>10.152.160.166</title>
<ellipse fill="none" stroke="black" cx="736" cy="-664.282" rx="91.2168" ry="18.3848"/>
<text text-anchor="middle" x="736" y="-660.682" font-family="Times Roman,serif" font-size="14.00">10.152.160.166</text>
</g>
<!-- 10.152.160.162&#45;&gt;10.152.160.166 -->
<g id="edge24" class="edge"><title>10.152.160.162&#45;&gt;10.152.160.166</title>
<path fill="none" stroke="blue" d="M746.088,-757.65C743.258,-751.941 740.568,-745.517 739,-739.282 735.252,-724.377 734.32,-707.288 734.406,-693.19"/>
<polygon fill="blue" stroke="blue" points="737.908,-693.156 734.64,-683.078 730.909,-692.994 737.908,-693.156"/>
<text text-anchor="middle" x="783" y="-716.682" font-family="Times Roman,serif" font-size="14.00">132.23 ms,3</text>
</g>
<!-- 125.18.4.26 -->
<g id="node47" class="node"><title>125.18.4.26</title>
<ellipse fill="none" stroke="black" cx="563" cy="-388.282" rx="72.1249" ry="18.3848"/>
<text text-anchor="middle" x="563" y="-384.682" font-family="Times Roman,serif" font-size="14.00">125.18.4.26</text>
</g>
<!-- 10.152.170.174&#45;&gt;125.18.4.26 -->
<g id="edge50" class="edge"><title>10.152.170.174&#45;&gt;125.18.4.26</title>
<path fill="none" stroke="red" d="M115.699,-462.213C134.322,-449.596 161.018,-433.581 187,-425.282 240.052,-408.336 388.165,-397.591 481.881,-392.277"/>
<polygon fill="red" stroke="red" points="482.112,-395.77 491.902,-391.718 481.722,-388.781 482.112,-395.77"/>
<text text-anchor="middle" x="232" y="-430.682" font-family="Times Roman,serif" font-size="14.00">114.67 ms,6</text>
</g>
<!-- 10.152.170.166&#45;&gt;125.18.4.26 -->
<g id="edge48" class="edge"><title>10.152.170.166&#45;&gt;125.18.4.26</title>
<path fill="none" stroke="red" d="M282.608,-461.835C278.625,-450.018 276.394,-435.109 285,-425.282 297.97,-410.471 405.518,-399.606 482.959,-393.613"/>
<polygon fill="red" stroke="red" points="483.491,-397.083 493.197,-392.835 482.96,-390.103 483.491,-397.083"/>
<text text-anchor="middle" x="329" y="-430.682" font-family="Times Roman,serif" font-size="14.00">151.21 ms,6</text>
</g>
<!-- 10.155.68.137 -->
<g id="node30" class="node"><title>10.155.68.137</title>
<ellipse fill="none" stroke="black" cx="511" cy="-776.282" rx="84.8528" ry="18.3848"/>
<text text-anchor="middle" x="511" y="-772.682" font-family="Times Roman,serif" font-size="14.00">10.155.68.137</text>
</g>
<!-- 10.155.68.4&#45;&gt;10.155.68.137 -->
<g id="edge28" class="edge"><title>10.155.68.4&#45;&gt;10.155.68.137</title>
<path fill="none" stroke="green" d="M371.886,-853.181C387.841,-846.978 406.021,-839.358 422,-831.282 440.465,-821.95 460.118,-810.033 476.247,-799.68"/>
<polygon fill="green" stroke="green" points="478.334,-802.498 484.814,-794.115 474.521,-796.627 478.334,-802.498"/>
<text text-anchor="middle" x="491.5" y="-818.682" font-family="Times Roman,serif" font-size="14.00">78.58 ms,4</text>
</g>
<!-- 10.155.68.76 -->
<g id="node32" class="node"><title>10.155.68.76</title>
<ellipse fill="none" stroke="black" cx="330" cy="-776.282" rx="77.9889" ry="18.3848"/>
<text text-anchor="middle" x="330" y="-772.682" font-family="Times Roman,serif" font-size="14.00">10.155.68.76</text>
</g>
<!-- 10.155.68.4&#45;&gt;10.155.68.76 -->
<g id="edge30" class="edge"><title>10.155.68.4&#45;&gt;10.155.68.76</title>
<path fill="none" stroke="green" d="M330,-849.664C330,-836.82 330,-819.498 330,-804.909"/>
<polygon fill="green" stroke="green" points="333.5,-804.872 330,-794.872 326.5,-804.872 333.5,-804.872"/>
<text text-anchor="middle" x="374" y="-818.682" font-family="Times Roman,serif" font-size="14.00">258.56 ms,4</text>
</g>
<!-- 223.224.40.67 -->
<g id="node36" class="node"><title>223.224.40.67</title>
<ellipse fill="none" stroke="black" cx="323" cy="-664.282" rx="84.8528" ry="18.3848"/>
<text text-anchor="middle" x="323" y="-660.682" font-family="Times Roman,serif" font-size="14.00">223.224.40.67</text>
</g>
<!-- 10.155.68.4&#45;&gt;223.224.40.67 -->
<g id="edge34" class="edge"><title>10.155.68.4&#45;&gt;223.224.40.67</title>
<path fill="none" stroke="green" d="M268.542,-858.417C231.459,-848.955 187.058,-830.61 164,-795.282 131.594,-745.631 207.828,-705.352 265.591,-683.127"/>
<polygon fill="green" stroke="green" points="266.909,-686.371 275.045,-679.585 264.452,-679.816 266.909,-686.371"/>
<text text-anchor="middle" x="203.5" y="-772.682" font-family="Times Roman,serif" font-size="14.00">42.39 ms,5</text>
</g>
<!-- 125.17.12.121 -->
<g id="node34" class="node"><title>125.17.12.121</title>
<ellipse fill="none" stroke="black" cx="735" cy="-572.282" rx="84.8528" ry="18.3848"/>
<text text-anchor="middle" x="735" y="-568.682" font-family="Times Roman,serif" font-size="14.00">125.17.12.121</text>
</g>
<!-- 10.152.160.166&#45;&gt;125.17.12.121 -->
<g id="edge32" class="edge"><title>10.152.160.166&#45;&gt;125.17.12.121</title>
<path fill="none" stroke="blue" d="M735.798,-645.664C735.658,-632.82 735.47,-615.498 735.311,-600.909"/>
<polygon fill="blue" stroke="blue" points="738.811,-600.833 735.202,-590.872 731.811,-600.909 738.811,-600.833"/>
<text text-anchor="middle" x="779" y="-614.682" font-family="Times Roman,serif" font-size="14.00">126.08 ms,4</text>
</g>
<!-- 182.79.252.66 -->
<g id="node41" class="node"><title>182.79.252.66</title>
<ellipse fill="none" stroke="black" cx="760" cy="-480.282" rx="84.8528" ry="18.3848"/>
<text text-anchor="middle" x="760" y="-476.682" font-family="Times Roman,serif" font-size="14.00">182.79.252.66</text>
</g>
<!-- 10.152.161.174&#45;&gt;182.79.252.66 -->
<g id="edge42" class="edge"><title>10.152.161.174&#45;&gt;182.79.252.66</title>
<path fill="none" stroke="blue" d="M945.293,-553.666C945.675,-541.777 943.978,-526.853 935,-517.282 922.567,-504.028 884.923,-495.159 847.72,-489.436"/>
<polygon fill="blue" stroke="blue" points="848.178,-485.966 837.775,-487.977 847.161,-492.892 848.178,-485.966"/>
<text text-anchor="middle" x="987" y="-522.682" font-family="Times Roman,serif" font-size="14.00">149.72 ms,5</text>
</g>
<!-- 59.144.37.17 -->
<g id="node44" class="node"><title>59.144.37.17</title>
<ellipse fill="none" stroke="black" cx="496" cy="-480.282" rx="77.9889" ry="18.3848"/>
<text text-anchor="middle" x="496" y="-476.682" font-family="Times Roman,serif" font-size="14.00">59.144.37.17</text>
</g>
<!-- 10.152.161.174&#45;&gt;59.144.37.17 -->
<g id="edge44" class="edge"><title>10.152.161.174&#45;&gt;59.144.37.17</title>
<path fill="none" stroke="blue" d="M890.01,-557.164C874.26,-551.505 857.383,-544.227 843,-535.282 833.122,-529.139 834.547,-522.188 824,-517.282 823.297,-516.955 673.54,-500.149 576.65,-489.302"/>
<polygon fill="blue" stroke="blue" points="576.898,-485.808 566.571,-488.173 576.12,-492.764 576.898,-485.808"/>
<text text-anchor="middle" x="887" y="-522.682" font-family="Times Roman,serif" font-size="14.00">144.54 ms,5</text>
</g>
<!-- 103.21.124.131 -->
<g id="node76" class="node"><title>103.21.124.131</title>
<ellipse fill="none" stroke="black" cx="807" cy="-20.2819" rx="91.2168" ry="18.3848"/>
<text text-anchor="middle" x="807" y="-16.6819" font-family="Times Roman,serif" font-size="14.00">103.21.124.131</text>
</g>
<!-- 10.152.161.174&#45;&gt;103.21.124.131 -->
<g id="edge110" class="edge"><title>10.152.161.174&#45;&gt;103.21.124.131</title>
<path fill="none" stroke="blue" d="M999.072,-557.564C1012.01,-552.165 1024.92,-544.922 1035,-535.282 1054.4,-516.72 1060,-507.133 1060,-480.282 1060,-480.282 1060,-480.282 1060,-112.282 1060,-76.7569 1033.62,-73.4714 1002,-57.2819 982.935,-47.5209 936.402,-38.5147 893.574,-31.8321"/>
<polygon fill="blue" stroke="blue" points="894.062,-28.3662 883.648,-30.3135 893.004,-35.2856 894.062,-28.3662"/>
<text text-anchor="middle" x="1108.5" y="-292.682" font-family="Times Roman,serif" font-size="14.00">171.65 ms,13</text>
</g>
<!-- 10.155.68.155 -->
<g id="node39" class="node"><title>10.155.68.155</title>
<ellipse fill="none" stroke="black" cx="511" cy="-664.282" rx="84.8528" ry="18.3848"/>
<text text-anchor="middle" x="511" y="-660.682" font-family="Times Roman,serif" font-size="14.00">10.155.68.155</text>
</g>
<!-- 10.155.68.137&#45;&gt;10.155.68.155 -->
<g id="edge38" class="edge"><title>10.155.68.137&#45;&gt;10.155.68.155</title>
<path fill="none" stroke="green" d="M511,-757.536C511,-740.011 511,-713.577 511,-693.323"/>
<polygon fill="green" stroke="green" points="514.5,-693.089 511,-683.089 507.5,-693.089 514.5,-693.089"/>
<text text-anchor="middle" x="550.5" y="-716.682" font-family="Times Roman,serif" font-size="14.00">48.01 ms,5</text>
</g>
<!-- 10.155.68.76&#45;&gt;223.224.40.67 -->
<g id="edge36" class="edge"><title>10.155.68.76&#45;&gt;223.224.40.67</title>
<path fill="none" stroke="green" d="M328.828,-757.536C327.733,-740.011 326.081,-713.577 324.815,-693.323"/>
<polygon fill="green" stroke="green" points="328.293,-692.851 324.175,-683.089 321.306,-693.288 328.293,-692.851"/>
<text text-anchor="middle" x="371" y="-716.682" font-family="Times Roman,serif" font-size="14.00">203.16 ms,5</text>
</g>
<!-- 125.17.12.121&#45;&gt;182.79.252.66 -->
<g id="edge40" class="edge"><title>125.17.12.121&#45;&gt;182.79.252.66</title>
<path fill="none" stroke="blue" d="M732.819,-553.549C732.175,-542.722 732.425,-528.972 736,-517.282 736.985,-514.06 738.341,-510.853 739.91,-507.75"/>
<polygon fill="blue" stroke="blue" points="743.089,-509.248 745.104,-498.847 737.042,-505.721 743.089,-509.248"/>
<text text-anchor="middle" x="780" y="-522.682" font-family="Times Roman,serif" font-size="14.00">158.65 ms,5</text>
</g>
<!-- 125.17.12.121&#45;&gt;59.144.37.17 -->
<g id="edge46" class="edge"><title>125.17.12.121&#45;&gt;59.144.37.17</title>
<path fill="none" stroke="blue" d="M659.878,-563.584C600.272,-556.046 525.154,-544.872 514,-535.282 506.198,-528.573 501.757,-518.428 499.238,-508.671"/>
<polygon fill="blue" stroke="blue" points="502.655,-507.914 497.247,-498.804 495.794,-509.299 502.655,-507.914"/>
<text text-anchor="middle" x="558" y="-522.682" font-family="Times Roman,serif" font-size="14.00">147.44 ms,5</text>
</g>
<!-- 125.16.67.33 -->
<g id="node50" class="node"><title>125.16.67.33</title>
<ellipse fill="none" stroke="black" cx="486" cy="-572.282" rx="77.9889" ry="18.3848"/>
<text text-anchor="middle" x="486" y="-568.682" font-family="Times Roman,serif" font-size="14.00">125.16.67.33</text>
</g>
<!-- 223.224.40.67&#45;&gt;125.16.67.33 -->
<g id="edge54" class="edge"><title>223.224.40.67&#45;&gt;125.16.67.33</title>
<path fill="none" stroke="green" d="M347.112,-646.293C362.862,-634.953 384.123,-620.405 404,-609.282 414.541,-603.383 426.198,-597.671 437.334,-592.572"/>
<polygon fill="green" stroke="green" points="438.841,-595.731 446.53,-588.442 435.973,-589.346 438.841,-595.731"/>
<text text-anchor="middle" x="448" y="-614.682" font-family="Times Roman,serif" font-size="14.00">165.37 ms,6</text>
</g>
<!-- 10.155.68.155&#45;&gt;125.16.67.33 -->
<g id="edge52" class="edge"><title>10.155.68.155&#45;&gt;125.16.67.33</title>
<path fill="none" stroke="green" d="M505.941,-645.664C502.451,-632.82 497.744,-615.498 493.779,-600.909"/>
<polygon fill="green" stroke="green" points="497.051,-599.604 491.052,-590.872 490.296,-601.44 497.051,-599.604"/>
<text text-anchor="middle" x="539.5" y="-614.682" font-family="Times Roman,serif" font-size="14.00">59.05 ms,6</text>
</g>
<!-- 182.79.252.66&#45;&gt;125.18.4.26 -->
<g id="edge60" class="edge"><title>182.79.252.66&#45;&gt;125.18.4.26</title>
<path fill="none" stroke="blue" d="M775.109,-462.061C782.801,-450.486 788.846,-435.764 780,-425.282 770.796,-414.376 698.466,-403.601 639.803,-396.517"/>
<polygon fill="blue" stroke="blue" points="640.117,-393.03 629.774,-395.325 639.291,-399.981 640.117,-393.03"/>
<text text-anchor="middle" x="828" y="-430.682" font-family="Times Roman,serif" font-size="14.00">148.65 ms,6</text>
</g>
<!-- 182.79.252.66&#45;&gt;125.18.4.26 -->
<g id="edge80" class="edge"><title>182.79.252.66&#45;&gt;125.18.4.26</title>
<path fill="none" stroke="green" d="M829.436,-469.454C864.33,-461.102 895.47,-447.189 876,-425.282 860.79,-408.168 731.675,-397.616 644.099,-392.362"/>
<polygon fill="green" stroke="green" points="644.09,-388.855 633.902,-391.762 643.679,-395.843 644.09,-388.855"/>
<text text-anchor="middle" x="925" y="-430.682" font-family="Times Roman,serif" font-size="14.00">184.82 ms,8</text>
</g>
<!-- 182.79.252.66&#45;&gt;125.18.4.26 -->
<g id="edge82" class="edge"><title>182.79.252.66&#45;&gt;125.18.4.26</title>
<path fill="none" stroke="green" d="M730.183,-462.675C706.793,-448.995 676.079,-431.361 663,-425.282 648.403,-418.497 632.186,-412.053 617.132,-406.501"/>
<polygon fill="green" stroke="green" points="618.031,-403.104 607.437,-402.986 615.645,-409.684 618.031,-403.104"/>
<text text-anchor="middle" x="735.5" y="-430.682" font-family="Times Roman,serif" font-size="14.00">87.97 ms,8</text>
</g>
<!-- 59.144.37.17&#45;&gt;125.18.4.26 -->
<g id="edge56" class="edge"><title>59.144.37.17&#45;&gt;125.18.4.26</title>
<path fill="none" stroke="blue" d="M482.826,-461.848C476.538,-450.609 471.793,-436.332 479,-425.282 484.363,-417.06 492.009,-410.652 500.528,-405.662"/>
<polygon fill="blue" stroke="blue" points="502.375,-408.648 509.663,-400.958 499.171,-402.424 502.375,-408.648"/>
<text text-anchor="middle" x="523" y="-430.682" font-family="Times Roman,serif" font-size="14.00">143.08 ms,6</text>
</g>
<!-- 59.144.37.17&#45;&gt;125.18.4.26 -->
<g id="edge58" class="edge"><title>59.144.37.17&#45;&gt;125.18.4.26</title>
<path fill="none" stroke="blue" d="M542.356,-465.345C552.137,-459.968 561.233,-452.79 567,-443.282 571.71,-435.516 572.38,-425.952 571.357,-416.989"/>
<polygon fill="blue" stroke="blue" points="574.753,-416.1 569.519,-406.888 567.866,-417.353 574.753,-416.1"/>
<text text-anchor="middle" x="615" y="-430.682" font-family="Times Roman,serif" font-size="14.00">148.65 ms,6</text>
</g>
<!-- 59.144.37.17&#45;&gt;125.18.4.26 -->
<g id="edge78" class="edge"><title>59.144.37.17&#45;&gt;125.18.4.26</title>
<path fill="none" stroke="green" d="M430.495,-470.061C396.114,-461.844 364.594,-447.857 383,-425.282 396.018,-409.315 441.711,-400.042 483.799,-394.772"/>
<polygon fill="green" stroke="green" points="484.315,-398.235 493.833,-393.58 483.49,-391.284 484.315,-398.235"/>
<text text-anchor="middle" x="427" y="-430.682" font-family="Times Roman,serif" font-size="14.00">184.82 ms,8</text>
</g>
<!-- 10.255.221.99 -->
<g id="node56" class="node"><title>10.255.221.99</title>
<ellipse fill="none" stroke="black" cx="538" cy="-296.282" rx="84.8528" ry="18.3848"/>
<text text-anchor="middle" x="538" y="-292.682" font-family="Times Roman,serif" font-size="14.00">10.255.221.99</text>
</g>
<!-- 125.18.4.26&#45;&gt;10.255.221.99 -->
<g id="edge62" class="edge"><title>125.18.4.26&#45;&gt;10.255.221.99</title>
<path fill="none" stroke="red" d="M557.941,-369.664C554.451,-356.82 549.744,-339.498 545.779,-324.909"/>
<polygon fill="red" stroke="red" points="549.051,-323.604 543.052,-314.872 542.296,-325.44 549.051,-323.604"/>
<text text-anchor="middle" x="596" y="-338.682" font-family="Times Roman,serif" font-size="14.00">128.49 ms,7</text>
</g>
<!-- 125.18.4.26&#45;&gt;10.255.221.99 -->
<g id="edge70" class="edge"><title>125.18.4.26&#45;&gt;10.255.221.99</title>
<path fill="none" stroke="blue" d="M509.109,-375.853C485.987,-369.327 462.728,-360.727 456,-351.282 445.317,-336.284 458.038,-324.188 476.402,-315.2"/>
<polygon fill="blue" stroke="blue" points="478.069,-318.29 485.793,-311.038 475.233,-311.89 478.069,-318.29"/>
<text text-anchor="middle" x="500" y="-338.682" font-family="Times Roman,serif" font-size="14.00">139.69 ms,7</text>
</g>
<!-- 10.255.222.99 -->
<g id="node58" class="node"><title>10.255.222.99</title>
<ellipse fill="none" stroke="black" cx="785" cy="-296.282" rx="84.8528" ry="18.3848"/>
<text text-anchor="middle" x="785" y="-292.682" font-family="Times Roman,serif" font-size="14.00">10.255.222.99</text>
</g>
<!-- 125.18.4.26&#45;&gt;10.255.222.99 -->
<g id="edge64" class="edge"><title>125.18.4.26&#45;&gt;10.255.222.99</title>
<path fill="none" stroke="red" d="M600.057,-372.269C613.981,-366.015 629.856,-358.597 644,-351.282 658.152,-343.963 660.487,-339.855 675,-333.282 690.503,-326.26 707.752,-319.844 723.906,-314.398"/>
<polygon fill="red" stroke="red" points="725.396,-317.592 733.797,-311.136 723.204,-310.944 725.396,-317.592"/>
<text text-anchor="middle" x="719" y="-338.682" font-family="Times Roman,serif" font-size="14.00">135.90 ms,7</text>
</g>
<!-- 125.18.4.26&#45;&gt;10.255.222.99 -->
<g id="edge72" class="edge"><title>125.18.4.26&#45;&gt;10.255.222.99</title>
<path fill="none" stroke="blue" d="M631.771,-382.627C681.455,-377.259 743.166,-367.539 763,-351.282 771.146,-344.605 776.296,-334.467 779.542,-324.706"/>
<polygon fill="blue" stroke="blue" points="782.981,-325.403 782.283,-314.831 776.236,-323.531 782.981,-325.403"/>
<text text-anchor="middle" x="820" y="-338.682" font-family="Times Roman,serif" font-size="14.00">147.25 ms,7</text>
</g>
<!-- 115.114.89.38 -->
<g id="node73" class="node"><title>115.114.89.38</title>
<ellipse fill="none" stroke="black" cx="687" cy="-112.282" rx="84.8528" ry="18.3848"/>
<text text-anchor="middle" x="687" y="-108.682" font-family="Times Roman,serif" font-size="14.00">115.114.89.38</text>
</g>
<!-- 125.18.4.26&#45;&gt;115.114.89.38 -->
<g id="edge96" class="edge"><title>125.18.4.26&#45;&gt;115.114.89.38</title>
<path fill="none" stroke="green" d="M501.351,-378.577C482.488,-373.116 462.828,-364.59 448,-351.282 409.17,-316.433 378.865,-285.221 407,-241.282 450.717,-173.007 540.729,-140.364 606.945,-125.091"/>
<polygon fill="green" stroke="green" points="607.94,-128.455 616.945,-122.873 606.424,-121.621 607.94,-128.455"/>
<text text-anchor="middle" x="455.5" y="-246.682" font-family="Times Roman,serif" font-size="14.00">147.18 ms,11</text>
</g>
<!-- 125.16.67.33&#45;&gt;182.79.252.66 -->
<g id="edge68" class="edge"><title>125.16.67.33&#45;&gt;182.79.252.66</title>
<path fill="none" stroke="green" d="M535.902,-557.965C556.576,-551.623 580.663,-543.695 602,-535.282 619.385,-528.427 622.582,-524.052 640,-517.282 658.429,-510.119 678.86,-503.387 697.563,-497.681"/>
<polygon fill="green" stroke="green" points="698.598,-501.024 707.166,-494.793 696.582,-494.321 698.598,-501.024"/>
<text text-anchor="middle" x="684" y="-522.682" font-family="Times Roman,serif" font-size="14.00">133.57 ms,7</text>
</g>
<!-- 125.16.67.33&#45;&gt;59.144.37.17 -->
<g id="edge66" class="edge"><title>125.16.67.33&#45;&gt;59.144.37.17</title>
<path fill="none" stroke="green" d="M434.625,-558.299C411.006,-549.127 390.675,-535.449 403,-517.282 408.988,-508.455 417.451,-501.734 426.859,-496.616"/>
<polygon fill="green" stroke="green" points="428.608,-499.659 436.117,-492.184 425.586,-493.345 428.608,-499.659"/>
<text text-anchor="middle" x="447" y="-522.682" font-family="Times Roman,serif" font-size="14.00">223.65 ms,7</text>
</g>
<!-- 10.119.249.49 -->
<g id="node64" class="node"><title>10.119.249.49</title>
<ellipse fill="none" stroke="black" cx="735" cy="-204.282" rx="84.8528" ry="18.3848"/>
<text text-anchor="middle" x="735" y="-200.682" font-family="Times Roman,serif" font-size="14.00">10.119.249.49</text>
</g>
<!-- 10.255.221.99&#45;&gt;10.119.249.49 -->
<g id="edge76" class="edge"><title>10.255.221.99&#45;&gt;10.119.249.49</title>
<path fill="none" stroke="red" d="M567.526,-278.871C587.391,-267.492 614.355,-252.682 639,-241.282 652.303,-235.128 666.942,-229.118 680.694,-223.791"/>
<polygon fill="red" stroke="red" points="681.952,-227.057 690.045,-220.219 679.454,-220.518 681.952,-227.057"/>
<text text-anchor="middle" x="683" y="-246.682" font-family="Times Roman,serif" font-size="14.00">123.06 ms,8</text>
</g>
<!-- 10.255.221.99&#45;&gt;10.119.249.49 -->
<g id="edge88" class="edge"><title>10.255.221.99&#45;&gt;10.119.249.49</title>
<path fill="none" stroke="blue" d="M520.188,-278.021C511.191,-266.573 503.915,-252.006 513,-241.282 521.998,-230.66 589.77,-220.399 648.094,-213.388"/>
<polygon fill="blue" stroke="blue" points="648.588,-216.854 658.108,-212.204 647.766,-209.902 648.588,-216.854"/>
<text text-anchor="middle" x="557" y="-246.682" font-family="Times Roman,serif" font-size="14.00">147.83 ms,8</text>
</g>
<!-- 10.255.222.99&#45;&gt;10.119.249.49 -->
<g id="edge74" class="edge"><title>10.255.222.99&#45;&gt;10.119.249.49</title>
<path fill="none" stroke="red" d="M753.36,-279.033C746.42,-273.666 739.967,-267.071 736,-259.282 731.919,-251.269 730.704,-241.711 730.8,-232.827"/>
<polygon fill="red" stroke="red" points="734.294,-233.04 731.421,-222.842 727.307,-232.605 734.294,-233.04"/>
<text text-anchor="middle" x="780" y="-246.682" font-family="Times Roman,serif" font-size="14.00">123.06 ms,8</text>
</g>
<!-- 10.255.222.99&#45;&gt;10.119.249.49 -->
<g id="edge84" class="edge"><title>10.255.222.99&#45;&gt;10.119.249.49</title>
<path fill="none" stroke="blue" d="M810.459,-278.378C822.413,-267.71 832.381,-253.843 824,-241.282 818.816,-233.513 811.663,-227.373 803.644,-222.521"/>
<polygon fill="blue" stroke="blue" points="805.13,-219.347 794.656,-217.745 801.845,-225.528 805.13,-219.347"/>
<text text-anchor="middle" x="871" y="-246.682" font-family="Times Roman,serif" font-size="14.00">149.42 ms,8</text>
</g>
<!-- 10.255.222.99&#45;&gt;10.119.249.49 -->
<g id="edge86" class="edge"><title>10.255.222.99&#45;&gt;10.119.249.49</title>
<path fill="none" stroke="blue" d="M862.296,-288.395C902.916,-281.096 940.27,-267.255 919,-241.282 906.677,-226.234 865.832,-217.175 825.748,-211.791"/>
<polygon fill="blue" stroke="blue" points="825.952,-208.289 815.591,-210.5 825.07,-215.233 825.952,-208.289"/>
<text text-anchor="middle" x="969" y="-246.682" font-family="Times Roman,serif" font-size="14.00">147.83 ms,8</text>
</g>
<!-- 10.119.249.49&#45;&gt;115.114.89.38 -->
<g id="edge90" class="edge"><title>10.119.249.49&#45;&gt;115.114.89.38</title>
<path fill="none" stroke="red" d="M675.344,-190.818C663.77,-185.419 653.059,-177.861 646,-167.282 639.271,-157.198 644.376,-146.437 652.966,-137.133"/>
<polygon fill="red" stroke="red" points="655.608,-139.451 660.444,-130.024 650.785,-134.377 655.608,-139.451"/>
<text text-anchor="middle" x="690" y="-154.682" font-family="Times Roman,serif" font-size="14.00">133.22 ms,9</text>
</g>
<!-- 10.119.249.49&#45;&gt;115.114.89.38 -->
<g id="edge92" class="edge"><title>10.119.249.49&#45;&gt;115.114.89.38</title>
<path fill="none" stroke="blue" d="M738.498,-185.763C739.697,-174.626 739.566,-160.486 734,-149.282 731.691,-144.634 728.493,-140.392 724.841,-136.573"/>
<polygon fill="blue" stroke="blue" points="727.118,-133.912 717.372,-129.756 722.399,-139.082 727.118,-133.912"/>
<text text-anchor="middle" x="782" y="-154.682" font-family="Times Roman,serif" font-size="14.00">153.04 ms,9</text>
</g>
<!-- 115.114.89.38&#45;&gt;103.21.124.131 -->
<g id="edge94" class="edge"><title>115.114.89.38&#45;&gt;103.21.124.131</title>
<path fill="none" stroke="red" d="M746.01,-98.9077C760.133,-93.4557 774.223,-85.8507 785,-75.2819 792.357,-68.067 797.325,-58.0747 800.647,-48.5841"/>
<polygon fill="red" stroke="red" points="803.997,-49.5983 803.545,-39.0131 797.297,-47.57 803.997,-49.5983"/>
<text text-anchor="middle" x="844.5" y="-62.6819" font-family="Times Roman,serif" font-size="14.00">259.79 ms,11</text>
</g>
<!-- 115.114.89.38&#45;&gt;103.21.124.131 -->
<g id="edge98" class="edge"><title>115.114.89.38&#45;&gt;103.21.124.131</title>
<path fill="none" stroke="blue" d="M770.096,-108.346C821.487,-103.971 880.669,-94.7421 897,-75.2819 909.978,-59.8174 895.085,-47.4719 873.921,-38.4273"/>
<polygon fill="blue" stroke="blue" points="875.117,-35.137 864.529,-34.7536 872.567,-41.656 875.117,-35.137"/>
<text text-anchor="middle" x="949.5" y="-62.6819" font-family="Times Roman,serif" font-size="14.00">148.66 ms,11</text>
</g>
<!-- 115.114.89.38&#45;&gt;103.21.124.131 -->
<g id="edge104" class="edge"><title>115.114.89.38&#45;&gt;103.21.124.131</title>
<path fill="none" stroke="red" d="M616.12,-102.033C580.455,-93.8969 548.523,-80.006 568,-57.2819 577.759,-45.8962 651.052,-35.6958 713.931,-28.9033"/>
<polygon fill="red" stroke="red" points="714.348,-32.3789 723.922,-27.8428 713.609,-25.418 714.348,-32.3789"/>
<text text-anchor="middle" x="616.5" y="-62.6819" font-family="Times Roman,serif" font-size="14.00">138.90 ms,13</text>
</g>
<!-- 115.114.89.38&#45;&gt;103.21.124.131 -->
<g id="edge106" class="edge"><title>115.114.89.38&#45;&gt;103.21.124.131</title>
<path fill="none" stroke="green" d="M680.396,-93.7206C677.535,-82.1527 676.355,-67.5654 684,-57.2819 690.374,-48.7077 709.21,-41.3683 730.286,-35.5406"/>
<polygon fill="green" stroke="green" points="731.304,-38.8919 740.09,-32.9704 729.529,-32.1207 731.304,-38.8919"/>
<text text-anchor="middle" x="732.5" y="-62.6819" font-family="Times Roman,serif" font-size="14.00">104.34 ms,13</text>
</g>
<!-- 103.21.124.131&#45;&gt;103.21.124.131 -->
<g id="edge100" class="edge"><title>103.21.124.131&#45;&gt;103.21.124.131</title>
<path fill="none" stroke="red" d="M897.628,-22.1474C908.725,-21.8134 916,-21.1915 916,-20.2819 916,-19.6991 913.014,-19.2345 907.951,-18.888"/>
<polygon fill="red" stroke="red" points="907.777,-15.3765 897.628,-18.4163 907.458,-22.3692 907.777,-15.3765"/>
<text text-anchor="middle" x="964.5" y="-16.6819" font-family="Times Roman,serif" font-size="14.00">742.03 ms,12</text>
</g>
<!-- 103.21.124.131&#45;&gt;103.21.124.131 -->
<g id="edge102" class="edge"><title>103.21.124.131&#45;&gt;103.21.124.131</title>
<path fill="none" stroke="blue" d="M870.9,-33.5011C933.429,-39.2437 1013,-34.8373 1013,-20.2819 1013,-6.49401 941.6,-1.81298 880.92,-6.23876"/>
<polygon fill="blue" stroke="blue" points="880.579,-2.75487 870.9,-7.06258 881.153,-9.73133 880.579,-2.75487"/>
<text text-anchor="middle" x="1061.5" y="-16.6819" font-family="Times Roman,serif" font-size="14.00">157.92 ms,12</text>
</g>
<!-- 103.21.124.131&#45;&gt;103.21.124.131 -->
<g id="edge108" class="edge"><title>103.21.124.131&#45;&gt;103.21.124.131</title>
<path fill="none" stroke="blue" d="M871.876,-33.3586C963.75,-42.6388 1110,-38.2799 1110,-20.2819 1110,-2.93413 974.128,1.74228 882.038,-6.25261"/>
<polygon fill="blue" stroke="blue" points="881.505,-2.78712 871.876,-7.20515 882.159,-9.75657 881.505,-2.78712"/>
<text text-anchor="middle" x="1158.5" y="-16.6819" font-family="Times Roman,serif" font-size="14.00">206.09 ms,13</text>
</g>
<!-- 103.21.124.131&#45;&gt;103.21.124.131 -->
<g id="edge112" class="edge"><title>103.21.124.131&#45;&gt;103.21.124.131</title>
<path fill="none" stroke="green" d="M871.691,-33.3032C988.573,-45.7871 1207,-41.4467 1207,-20.2819 1207,0.283543 1000.77,4.96403 881.859,-6.24038"/>
<polygon fill="green" stroke="green" points="881.292,-2.77959 871.691,-7.26055 881.991,-9.74462 881.292,-2.77959"/>
<text text-anchor="middle" x="1255.5" y="-16.6819" font-family="Times Roman,serif" font-size="14.00">114.99 ms,14</text>
</g>
</g>
</svg>
